<svg viewBox="0 0 261.8 35.7" version="1.1" xmlns="http://www.w3.org/2000/svg" data-name="Calque 1" id="Calque_1">
  <defs>
    <style>
      .cls-1 {
        fill: #231f20;
        stroke-width: 0px;
      }
    </style>
  </defs>
  <path d="M130.6,4.7l-13.1,13.1,13.1,13.1,13.1-13.1-13.1-13.1ZM130.6,23.7l-5.8-5.8,5.8-5.8,5.8,5.8-5.8,5.8ZM130.1,11.3l-6.1,6.1h-5l11.1-11.1v5ZM124,18.3l6.2,6.2v5l-11.2-11.2h5ZM131,24.5l6.2-6.2h5l-11.2,11.2v-5ZM137.2,17.4l-6.1-6.1v-5l11.1,11.1h-5Z" class="cls-1"></path>
  <g>
    <path d="M10.2,25.1h-1v-6.6H1v6.6h-1v-13.3h1v5.7h8.2v-5.7h1v13.3Z" class="cls-1"></path>
    <path d="M34.1,25.1h-1.2l-1.6-4.3h-6.6c-.2.7-.5,1.4-.8,2.1-.3.7-.5,1.5-.8,2.1h-1c.4-1.2.9-2.3,1.3-3.4.4-1.1.8-2.2,1.3-3.3s.8-2.2,1.3-3.3.9-2.2,1.3-3.4h1.4l5.4,13.3ZM31.1,20.1l-3.1-7.4-2.9,7.4h6Z" class="cls-1"></path>
    <path d="M51.7,25.3c-.8,0-1.5,0-2-.2-.6-.2-1-.4-1.4-.7-.4-.3-.7-.6-.9-1-.2-.4-.4-.8-.5-1.2-.1-.4-.2-.9-.2-1.3s0-.9,0-1.3v-7.7h1v7.7c0,1,0,1.8.3,2.5.2.6.4,1.1.8,1.5.4.4.8.6,1.3.7.5.1,1.1.2,1.7.2s1.3,0,1.8-.2c.5-.1.9-.4,1.3-.7.3-.4.6-.9.8-1.5.2-.6.3-1.5.3-2.5v-7.7h1v7.7c0,.9,0,1.7-.2,2.5-.2.7-.4,1.3-.8,1.8-.4.5-.9.9-1.6,1.1s-1.5.4-2.5.4Z" class="cls-1"></path>
    <path d="M79.9,12.8h-4.7v12.3h-1v-12.3h-4.6v-1h10.2v1Z" class="cls-1"></path>
    <path d="M102.4,25.1h-9.6v-13.3h9.3v1h-8.3v4.9h7.8v1h-7.8v5.5h8.6v1Z" class="cls-1"></path>
  </g>
  <g>
    <path d="M168,15.3c0-.4-.3-.8-.5-1.1-.2-.3-.5-.6-.9-.9-.4-.3-.8-.5-1.3-.6-.5-.1-1-.2-1.5-.2-.8,0-1.5.1-2.1.4-.6.3-1.2.6-1.6,1.1-.4.5-.8,1.1-1,1.8-.2.7-.4,1.6-.4,2.6s.1,1.8.4,2.6c.2.7.6,1.4,1,1.9.4.5,1,.9,1.6,1.1.6.3,1.3.4,2.1.4,1.2,0,2.1-.3,2.8-.8s1.2-1.3,1.4-2.3h1c0,.6-.3,1.2-.6,1.7-.3.5-.7.9-1.1,1.3-.5.3-1,.6-1.6.8-.6.2-1.2.3-1.9.3s-1.8-.2-2.5-.5-1.4-.8-1.9-1.4c-.5-.6-.9-1.3-1.2-2.2-.3-.9-.4-1.8-.4-2.9s.1-2,.4-2.8.7-1.6,1.2-2.2c.5-.6,1.2-1.1,1.9-1.4.7-.3,1.6-.5,2.5-.5s1.3,0,1.8.3c.6.2,1.1.4,1.6.8.5.3.9.7,1.2,1.2.3.5.5,1,.7,1.5h-1Z" class="cls-1"></path>
    <path d="M192.9,25.1h-1.2l-1.6-4.3h-6.6c-.2.7-.5,1.4-.8,2.1-.3.7-.5,1.5-.8,2.1h-1c.4-1.2.9-2.3,1.3-3.4s.8-2.2,1.3-3.3c.4-1.1.8-2.2,1.3-3.3.4-1.1.9-2.2,1.3-3.4h1.4l5.4,13.3ZM189.9,20.1l-3.1-7.4-2.9,7.4h6Z" class="cls-1"></path>
    <path d="M216.2,25.1h-1.1l-1.3-3.5c-.1-.3-.3-.7-.4-1-.2-.3-.3-.6-.6-.8-.2-.2-.5-.4-.7-.5s-.6-.2-1-.2h-4.7v6h-1v-13.3h6c.6,0,1.1,0,1.6.2s1,.3,1.4.5.7.6,1,1.1c.2.5.4,1,.4,1.8s0,.9-.2,1.2c-.1.4-.3.7-.5,1-.2.3-.5.6-.9.8-.3.2-.7.4-1.2.5.3.2.5.4.6.6.2.2.3.4.4.6.1.2.2.4.3.7,0,.2.2.5.3.8l1.4,3.6ZM206.4,18.1h4.6c.7,0,1.2,0,1.7-.1.5,0,.9-.3,1.2-.5.3-.2.5-.5.7-.9.1-.4.2-.8.2-1.3,0-.9-.3-1.6-.9-2s-1.4-.6-2.6-.6h-4.9v5.4Z" class="cls-1"></path>
    <path d="M240.1,25.1h-1.2l-1.6-4.3h-6.6c-.2.7-.5,1.4-.8,2.1-.3.7-.5,1.5-.8,2.1h-1c.4-1.2.9-2.3,1.3-3.4s.8-2.2,1.3-3.3.8-2.2,1.3-3.3c.4-1.1.9-2.2,1.3-3.4h1.4l5.4,13.3ZM237,20.1l-3.1-7.4-2.9,7.4h6Z" class="cls-1"></path>
    <path d="M261.8,12.8h-4.7v12.3h-1v-12.3h-4.6v-1h10.2v1Z" class="cls-1"></path>
  </g>
</svg>