<svg xmlns="http://www.w3.org/2000/svg" xmlns:xlink="http://www.w3.org/1999/xlink" width="1000" height="57.729" viewBox="0 0 1000 57.729">
  <defs>
    <clipPath id="clip-path">
      <rect id="Rectangle_2" data-name="Rectangle 2" width="49.568" height="14.045" fill="none"/>
    </clipPath>
  </defs>
  <g id="Group_10" data-name="Group 10" transform="translate(-150.678 -493.846)">
    <g id="Group_9" data-name="Group 9" transform="translate(150.678 493.846)">
      <g id="Group_2" data-name="Group 2" transform="translate(0)">
        <g id="Group_4" data-name="Group 4">
          <path id="Path_1" data-name="Path 1" d="M2070.162,84.891a.65.65,0,0,1-.649-.649V53.085a.649.649,0,1,1,1.3,0V84.242a.65.65,0,0,1-.649.649" transform="translate(-1070.811 -27.163)" fill="#1d1f29"/>
          <path id="Path_2" data-name="Path 2" d="M1812.382,84.891a.651.651,0,0,1-.649-.649V53.085a.649.649,0,0,1,1.3,0V84.242a.65.65,0,0,1-.649.649" transform="translate(-938.333 -27.163)" fill="#1d1f29"/>
          <path id="Path_3" data-name="Path 3" d="M1554.6,84.891a.65.65,0,0,1-.649-.649V53.085a.649.649,0,1,1,1.3,0V84.242a.65.65,0,0,1-.649.649" transform="translate(-804.921 -27.163)" fill="#1d1f29"/>
          <path id="Path_4" data-name="Path 4" d="M1296.812,84.891a.65.65,0,0,1-.649-.649V53.085a.649.649,0,1,1,1.3,0V84.242a.651.651,0,0,1-.649.649" transform="translate(-671.971 -27.163)" fill="#1d1f29"/>
          <path id="Path_5" data-name="Path 5" d="M1039.032,84.891a.649.649,0,0,1-.649-.649V53.085a.649.649,0,0,1,1.3,0V84.242a.65.65,0,0,1-.649.649" transform="translate(-539.027 -27.163)" fill="#1d1f29"/>
          <path id="Path_6" data-name="Path 6" d="M781.243,84.891a.649.649,0,0,1-.649-.649V53.085a.649.649,0,0,1,1.3,0V84.242a.649.649,0,0,1-.649.649" transform="translate(-406.079 -27.163)" fill="#1d1f29"/>
          <path id="Path_7" data-name="Path 7" d="M523.457,84.891a.649.649,0,0,1-.649-.649V53.085a.649.649,0,0,1,1.3,0V84.242a.649.649,0,0,1-.649.649" transform="translate(-273.132 -27.163)" fill="#1d1f29"/>
          <path id="Path_8" data-name="Path 8" d="M265.673,84.891a.649.649,0,0,1-.649-.649V53.085a.649.649,0,0,1,1.3,0V84.242a.649.649,0,0,1-.649.649" transform="translate(-139.718 -27.163)" fill="#1d1f29"/>
          <path id="Path_9" data-name="Path 9" d="M7.887,84.891a.649.649,0,0,1-.649-.649V53.085a.649.649,0,1,1,1.3,0V84.242a.649.649,0,0,1-.649.649" transform="translate(-7.238 -27.163)" fill="#1d1f29"/>
          <path id="Path_10" data-name="Path 10" d="M252.783,112.343a.649.649,0,0,1-.649-.649V106.5a.649.649,0,1,1,1.3,0v5.193a.649.649,0,0,1-.649.649" transform="translate(-133.094 -54.615)" fill="#1d1f29"/>
          <path id="Path_11" data-name="Path 11" d="M239.894,101.362a.649.649,0,0,1-.649-.649V85.134a.649.649,0,1,1,1.3,0v15.579a.649.649,0,0,1-.649.649" transform="translate(-126.47 -43.634)" fill="#1d1f29"/>
          <path id="Path_12" data-name="Path 12" d="M227.006,112.343a.649.649,0,0,1-.649-.649V106.5a.649.649,0,1,1,1.3,0v5.193a.649.649,0,0,1-.648.649" transform="translate(-119.847 -54.615)" fill="#1d1f29"/>
          <path id="Path_13" data-name="Path 13" d="M214.117,101.362a.649.649,0,0,1-.649-.649V85.134a.649.649,0,1,1,1.3,0v15.579a.649.649,0,0,1-.649.649" transform="translate(-113.223 -43.634)" fill="#1d1f29"/>
          <path id="Path_14" data-name="Path 14" d="M201.227,112.343a.649.649,0,0,1-.649-.649V106.5a.649.649,0,1,1,1.3,0v5.193a.649.649,0,0,1-.649.649" transform="translate(-106.599 -54.615)" fill="#1d1f29"/>
          <path id="Path_15" data-name="Path 15" d="M188.338,101.362a.649.649,0,0,1-.649-.649V85.134a.649.649,0,1,1,1.3,0v15.579a.649.649,0,0,1-.649.649" transform="translate(-99.975 -43.634)" fill="#1d1f29"/>
          <path id="Path_16" data-name="Path 16" d="M175.448,112.343a.649.649,0,0,1-.649-.649V106.5a.649.649,0,1,1,1.3,0v5.193a.649.649,0,0,1-.649.649" transform="translate(-93.35 -54.615)" fill="#1d1f29"/>
          <path id="Path_17" data-name="Path 17" d="M162.558,101.362a.649.649,0,0,1-.649-.649V85.134a.649.649,0,1,1,1.3,0v15.579a.649.649,0,0,1-.649.649" transform="translate(-86.726 -43.634)" fill="#1d1f29"/>
          <path id="Path_18" data-name="Path 18" d="M149.671,112.343a.649.649,0,0,1-.649-.649V106.5a.649.649,0,1,1,1.3,0v5.193a.649.649,0,0,1-.649.649" transform="translate(-80.103 -54.615)" fill="#1d1f29"/>
          <path id="Path_19" data-name="Path 19" d="M136.781,90.383a.649.649,0,0,1-.649-.649V63.772a.649.649,0,1,1,1.3,0V89.734a.649.649,0,0,1-.649.649" transform="translate(-73.479 -32.655)" fill="#1d1f29"/>
          <path id="Path_20" data-name="Path 20" d="M123.891,112.343a.649.649,0,0,1-.649-.649V106.5a.649.649,0,1,1,1.3,0v5.193a.649.649,0,0,1-.649.649" transform="translate(-66.854 -54.615)" fill="#1d1f29"/>
          <path id="Path_21" data-name="Path 21" d="M111,101.362a.649.649,0,0,1-.649-.649V85.134a.649.649,0,0,1,1.3,0v15.579a.649.649,0,0,1-.649.649" transform="translate(-60.23 -43.634)" fill="#1d1f29"/>
          <path id="Path_22" data-name="Path 22" d="M98.112,112.343a.649.649,0,0,1-.649-.649V106.5a.649.649,0,1,1,1.3,0v5.193a.649.649,0,0,1-.648.649" transform="translate(-53.606 -54.615)" fill="#1d1f29"/>
          <path id="Path_23" data-name="Path 23" d="M85.223,101.362a.649.649,0,0,1-.649-.649V85.134a.649.649,0,1,1,1.3,0v15.579a.649.649,0,0,1-.649.649" transform="translate(-46.982 -43.634)" fill="#1d1f29"/>
          <path id="Path_24" data-name="Path 24" d="M72.336,112.343a.649.649,0,0,1-.649-.649V106.5a.649.649,0,1,1,1.3,0v5.193a.649.649,0,0,1-.649.649" transform="translate(-40.359 -54.615)" fill="#1d1f29"/>
          <path id="Path_25" data-name="Path 25" d="M59.446,101.362a.649.649,0,0,1-.649-.649V85.134a.649.649,0,0,1,1.3,0v15.579a.649.649,0,0,1-.649.649" transform="translate(-33.735 -43.634)" fill="#1d1f29"/>
          <path id="Path_26" data-name="Path 26" d="M46.556,112.343a.649.649,0,0,1-.649-.649V106.5a.649.649,0,1,1,1.3,0v5.193a.649.649,0,0,1-.649.649" transform="translate(-27.11 -54.615)" fill="#1d1f29"/>
          <path id="Path_27" data-name="Path 27" d="M33.666,101.362a.649.649,0,0,1-.649-.649V85.134a.649.649,0,1,1,1.3,0v15.579a.649.649,0,0,1-.649.649" transform="translate(-20.486 -43.634)" fill="#1d1f29"/>
          <path id="Path_28" data-name="Path 28" d="M20.776,112.343a.649.649,0,0,1-.649-.649V106.5a.649.649,0,1,1,1.3,0v5.193a.649.649,0,0,1-.649.649" transform="translate(-13.862 -54.615)" fill="#1d1f29"/>
          <path id="Path_29" data-name="Path 29" d="M510.57,112.343a.649.649,0,0,1-.649-.649V106.5a.649.649,0,0,1,1.3,0v5.193a.649.649,0,0,1-.649.649" transform="translate(-266.486 -54.615)" fill="#1d1f29"/>
          <path id="Path_30" data-name="Path 30" d="M497.68,101.362a.649.649,0,0,1-.649-.649V85.134a.649.649,0,0,1,1.3,0v15.579a.649.649,0,0,1-.649.649" transform="translate(-259.837 -43.634)" fill="#1d1f29"/>
          <path id="Path_31" data-name="Path 31" d="M484.79,112.343a.649.649,0,0,1-.649-.649V106.5a.649.649,0,1,1,1.3,0v5.193a.649.649,0,0,1-.649.649" transform="translate(-253.19 -54.615)" fill="#1d1f29"/>
          <path id="Path_32" data-name="Path 32" d="M471.9,101.362a.649.649,0,0,1-.649-.649V85.134a.649.649,0,1,1,1.3,0v15.579a.649.649,0,0,1-.649.649" transform="translate(-246.543 -43.634)" fill="#1d1f29"/>
          <path id="Path_33" data-name="Path 33" d="M459.011,112.343a.649.649,0,0,1-.649-.649V106.5a.649.649,0,0,1,1.3,0v5.193a.649.649,0,0,1-.649.649" transform="translate(-239.895 -54.615)" fill="#1d1f29"/>
          <path id="Path_34" data-name="Path 34" d="M446.124,101.362a.649.649,0,0,1-.649-.649V85.134a.649.649,0,1,1,1.3,0v15.579a.649.649,0,0,1-.649.649" transform="translate(-233.249 -43.634)" fill="#1d1f29"/>
          <path id="Path_35" data-name="Path 35" d="M433.234,112.343a.649.649,0,0,1-.649-.649V106.5a.649.649,0,1,1,1.3,0v5.193a.649.649,0,0,1-.649.649" transform="translate(-226.601 -54.615)" fill="#1d1f29"/>
          <path id="Path_36" data-name="Path 36" d="M420.345,101.362a.649.649,0,0,1-.649-.649V85.134a.649.649,0,0,1,1.3,0v15.579a.649.649,0,0,1-.649.649" transform="translate(-219.954 -43.634)" fill="#1d1f29"/>
          <path id="Path_37" data-name="Path 37" d="M407.455,112.343a.649.649,0,0,1-.649-.649V106.5a.649.649,0,1,1,1.3,0v5.193a.649.649,0,0,1-.649.649" transform="translate(-212.582 -54.615)" fill="#1d1f29"/>
          <path id="Path_38" data-name="Path 38" d="M394.565,90.383a.649.649,0,0,1-.649-.649V63.772a.649.649,0,0,1,1.3,0V89.734a.649.649,0,0,1-.649.649" transform="translate(-205.958 -32.655)" fill="#1d1f29"/>
          <path id="Path_39" data-name="Path 39" d="M381.675,112.343a.649.649,0,0,1-.649-.649V106.5a.649.649,0,0,1,1.3,0v5.193a.649.649,0,0,1-.649.649" transform="translate(-199.333 -54.615)" fill="#1d1f29"/>
          <path id="Path_40" data-name="Path 40" d="M368.788,101.362a.649.649,0,0,1-.649-.649V85.134a.649.649,0,0,1,1.3,0v15.579a.649.649,0,0,1-.649.649" transform="translate(-192.71 -43.634)" fill="#1d1f29"/>
          <path id="Path_41" data-name="Path 41" d="M355.9,112.343a.649.649,0,0,1-.649-.649V106.5a.649.649,0,0,1,1.3,0v5.193a.649.649,0,0,1-.649.649" transform="translate(-186.088 -54.615)" fill="#1d1f29"/>
          <path id="Path_42" data-name="Path 42" d="M343.009,101.362a.649.649,0,0,1-.649-.649V85.134a.649.649,0,0,1,1.3,0v15.579a.649.649,0,0,1-.649.649" transform="translate(-179.462 -43.634)" fill="#1d1f29"/>
          <path id="Path_43" data-name="Path 43" d="M330.119,112.343a.649.649,0,0,1-.649-.649V106.5a.649.649,0,1,1,1.3,0v5.193a.649.649,0,0,1-.649.649" transform="translate(-172.838 -54.615)" fill="#1d1f29"/>
          <path id="Path_44" data-name="Path 44" d="M317.23,101.362a.649.649,0,0,1-.649-.649V85.134a.649.649,0,0,1,1.3,0v15.579a.649.649,0,0,1-.649.649" transform="translate(-166.214 -43.634)" fill="#1d1f29"/>
          <path id="Path_45" data-name="Path 45" d="M304.34,112.343a.649.649,0,0,1-.649-.649V106.5a.649.649,0,0,1,1.3,0v5.193a.649.649,0,0,1-.649.649" transform="translate(-159.59 -54.615)" fill="#1d1f29"/>
          <path id="Path_46" data-name="Path 46" d="M291.453,101.362a.649.649,0,0,1-.649-.649V85.134a.649.649,0,0,1,1.3,0v15.579a.649.649,0,0,1-.649.649" transform="translate(-152.967 -43.634)" fill="#1d1f29"/>
          <path id="Path_47" data-name="Path 47" d="M278.563,112.343a.649.649,0,0,1-.649-.649V106.5a.649.649,0,0,1,1.3,0v5.193a.649.649,0,0,1-.649.649" transform="translate(-146.343 -54.615)" fill="#1d1f29"/>
          <path id="Path_48" data-name="Path 48" d="M768.353,112.343a.649.649,0,0,1-.649-.649V106.5a.649.649,0,0,1,1.3,0v5.193a.649.649,0,0,1-.649.649" transform="translate(-399.431 -54.615)" fill="#1d1f29"/>
          <path id="Path_49" data-name="Path 49" d="M755.464,101.362a.649.649,0,0,1-.649-.649V85.134a.649.649,0,0,1,1.3,0v15.579a.649.649,0,0,1-.649.649" transform="translate(-392.784 -43.634)" fill="#1d1f29"/>
          <path id="Path_50" data-name="Path 50" d="M742.574,112.343a.649.649,0,0,1-.649-.649V106.5a.649.649,0,1,1,1.3,0v5.193a.649.649,0,0,1-.649.649" transform="translate(-386.137 -54.615)" fill="#1d1f29"/>
          <path id="Path_51" data-name="Path 51" d="M729.687,101.362a.649.649,0,0,1-.649-.649V85.134a.649.649,0,1,1,1.3,0v15.579a.649.649,0,0,1-.649.649" transform="translate(-379.49 -43.634)" fill="#1d1f29"/>
          <path id="Path_52" data-name="Path 52" d="M716.8,112.343a.649.649,0,0,1-.649-.649V106.5a.649.649,0,1,1,1.3,0v5.193a.649.649,0,0,1-.649.649" transform="translate(-372.844 -54.615)" fill="#1d1f29"/>
          <path id="Path_53" data-name="Path 53" d="M703.907,101.362a.649.649,0,0,1-.649-.649V85.134a.649.649,0,0,1,1.3,0v15.579a.649.649,0,0,1-.649.649" transform="translate(-366.195 -43.634)" fill="#1d1f29"/>
          <path id="Path_54" data-name="Path 54" d="M691.018,112.343a.649.649,0,0,1-.649-.649V106.5a.649.649,0,0,1,1.3,0v5.193a.649.649,0,0,1-.649.649" transform="translate(-359.548 -54.615)" fill="#1d1f29"/>
          <path id="Path_55" data-name="Path 55" d="M678.128,101.362a.649.649,0,0,1-.649-.649V85.134a.649.649,0,0,1,1.3,0v15.579a.649.649,0,0,1-.649.649" transform="translate(-352.899 -43.634)" fill="#1d1f29"/>
          <path id="Path_56" data-name="Path 56" d="M665.241,112.343a.649.649,0,0,1-.649-.649V106.5a.649.649,0,1,1,1.3,0v5.193a.649.649,0,0,1-.649.649" transform="translate(-346.254 -54.615)" fill="#1d1f29"/>
          <path id="Path_57" data-name="Path 57" d="M652.351,90.383a.649.649,0,0,1-.649-.649V63.772a.649.649,0,1,1,1.3,0V89.734a.649.649,0,0,1-.649.649" transform="translate(-339.606 -32.655)" fill="#1d1f29"/>
          <path id="Path_58" data-name="Path 58" d="M639.462,112.343a.649.649,0,0,1-.649-.649V106.5a.649.649,0,1,1,1.3,0v5.193a.649.649,0,0,1-.649.649" transform="translate(-332.959 -54.615)" fill="#1d1f29"/>
          <path id="Path_59" data-name="Path 59" d="M626.572,101.362a.649.649,0,0,1-.649-.649V85.134a.649.649,0,0,1,1.3,0v15.579a.649.649,0,0,1-.649.649" transform="translate(-326.311 -43.634)" fill="#1d1f29"/>
          <path id="Path_60" data-name="Path 60" d="M613.682,112.343a.649.649,0,0,1-.649-.649V106.5a.649.649,0,1,1,1.3,0v5.193a.649.649,0,0,1-.649.649" transform="translate(-319.663 -54.615)" fill="#1d1f29"/>
          <path id="Path_61" data-name="Path 61" d="M600.792,101.362a.649.649,0,0,1-.649-.649V85.134a.649.649,0,1,1,1.3,0v15.579a.649.649,0,0,1-.649.649" transform="translate(-313.015 -43.634)" fill="#1d1f29"/>
          <path id="Path_62" data-name="Path 62" d="M587.9,112.343a.649.649,0,0,1-.649-.649V106.5a.649.649,0,1,1,1.3,0v5.193a.649.649,0,0,1-.649.649" transform="translate(-306.368 -54.615)" fill="#1d1f29"/>
          <path id="Path_63" data-name="Path 63" d="M575.015,101.362a.649.649,0,0,1-.649-.649V85.134a.649.649,0,1,1,1.3,0v15.579a.649.649,0,0,1-.649.649" transform="translate(-299.721 -43.634)" fill="#1d1f29"/>
          <path id="Path_64" data-name="Path 64" d="M562.126,112.343a.649.649,0,0,1-.649-.649V106.5a.649.649,0,1,1,1.3,0v5.193a.649.649,0,0,1-.649.649" transform="translate(-293.074 -54.615)" fill="#1d1f29"/>
          <path id="Path_65" data-name="Path 65" d="M549.236,101.362a.649.649,0,0,1-.649-.649V85.134a.649.649,0,0,1,1.3,0v15.579a.649.649,0,0,1-.649.649" transform="translate(-286.426 -43.634)" fill="#1d1f29"/>
          <path id="Path_66" data-name="Path 66" d="M536.347,112.343a.649.649,0,0,1-.649-.649V106.5a.649.649,0,0,1,1.3,0v5.193a.649.649,0,0,1-.649.649" transform="translate(-279.779 -54.615)" fill="#1d1f29"/>
          <path id="Path_67" data-name="Path 67" d="M1026.141,112.342a.65.65,0,0,1-.649-.649V106.5a.651.651,0,0,1,1.3,0v5.193a.65.65,0,0,1-.649.649" transform="translate(-532.379 -54.614)" fill="#1d1f29"/>
          <path id="Path_68" data-name="Path 68" d="M1013.252,101.362a.649.649,0,0,1-.649-.649V85.134a.649.649,0,1,1,1.3,0v15.579a.649.649,0,0,1-.649.649" transform="translate(-525.732 -43.634)" fill="#1d1f29"/>
          <path id="Path_69" data-name="Path 69" d="M1000.362,112.343a.649.649,0,0,1-.649-.649V106.5a.649.649,0,1,1,1.3,0v5.193a.649.649,0,0,1-.649.649" transform="translate(-519.084 -54.615)" fill="#1d1f29"/>
          <path id="Path_70" data-name="Path 70" d="M987.47,101.362a.649.649,0,0,1-.649-.649V85.134a.649.649,0,1,1,1.3,0v15.579a.65.65,0,0,1-.649.649" transform="translate(-512.436 -43.634)" fill="#1d1f29"/>
          <path id="Path_71" data-name="Path 71" d="M974.58,112.343a.65.65,0,0,1-.649-.649V106.5a.649.649,0,1,1,1.3,0v5.193a.649.649,0,0,1-.649.649" transform="translate(-505.788 -54.615)" fill="#1d1f29"/>
          <path id="Path_72" data-name="Path 72" d="M961.691,101.362a.649.649,0,0,1-.649-.649V85.134a.649.649,0,1,1,1.3,0v15.579a.649.649,0,0,1-.649.649" transform="translate(-499.141 -43.634)" fill="#1d1f29"/>
          <path id="Path_73" data-name="Path 73" d="M948.8,112.343a.649.649,0,0,1-.649-.649V106.5a.649.649,0,0,1,1.3,0v5.193a.649.649,0,0,1-.649.649" transform="translate(-492.494 -54.615)" fill="#1d1f29"/>
          <path id="Path_74" data-name="Path 74" d="M935.914,101.362a.649.649,0,0,1-.649-.649V85.134a.649.649,0,1,1,1.3,0v15.579a.649.649,0,0,1-.649.649" transform="translate(-485.847 -43.634)" fill="#1d1f29"/>
          <path id="Path_75" data-name="Path 75" d="M923.024,112.343a.649.649,0,0,1-.649-.649V106.5a.649.649,0,0,1,1.3,0v5.193a.65.65,0,0,1-.648.649" transform="translate(-479.199 -54.615)" fill="#1d1f29"/>
          <path id="Path_76" data-name="Path 76" d="M910.135,90.383a.649.649,0,0,1-.649-.649V63.772a.649.649,0,1,1,1.3,0V89.734a.649.649,0,0,1-.649.649" transform="translate(-472.552 -32.655)" fill="#1d1f29"/>
          <path id="Path_77" data-name="Path 77" d="M897.245,112.343a.649.649,0,0,1-.649-.649V106.5a.649.649,0,1,1,1.3,0v5.193a.649.649,0,0,1-.649.649" transform="translate(-465.904 -54.615)" fill="#1d1f29"/>
          <path id="Path_78" data-name="Path 78" d="M884.358,101.362a.649.649,0,0,1-.649-.649V85.134a.649.649,0,1,1,1.3,0v15.579a.649.649,0,0,1-.649.649" transform="translate(-459.258 -43.634)" fill="#1d1f29"/>
          <path id="Path_79" data-name="Path 79" d="M871.468,112.343a.649.649,0,0,1-.649-.649V106.5a.649.649,0,1,1,1.3,0v5.193a.649.649,0,0,1-.649.649" transform="translate(-452.61 -54.615)" fill="#1d1f29"/>
          <path id="Path_80" data-name="Path 80" d="M858.578,101.362a.649.649,0,0,1-.649-.649V85.134a.649.649,0,1,1,1.3,0v15.579a.649.649,0,0,1-.649.649" transform="translate(-445.963 -43.634)" fill="#1d1f29"/>
          <path id="Path_81" data-name="Path 81" d="M845.689,112.343a.649.649,0,0,1-.649-.649V106.5a.649.649,0,1,1,1.3,0v5.193a.649.649,0,0,1-.649.649" transform="translate(-439.316 -54.615)" fill="#1d1f29"/>
          <path id="Path_82" data-name="Path 82" d="M832.8,101.362a.649.649,0,0,1-.649-.649V85.134a.649.649,0,1,1,1.3,0v15.579a.649.649,0,0,1-.649.649" transform="translate(-432.669 -43.634)" fill="#1d1f29"/>
          <path id="Path_83" data-name="Path 83" d="M819.909,112.343a.649.649,0,0,1-.649-.649V106.5a.649.649,0,0,1,1.3,0v5.193a.649.649,0,0,1-.648.649" transform="translate(-426.02 -54.615)" fill="#1d1f29"/>
          <path id="Path_84" data-name="Path 84" d="M807.022,101.362a.649.649,0,0,1-.649-.649V85.134a.649.649,0,1,1,1.3,0v15.579a.649.649,0,0,1-.649.649" transform="translate(-419.374 -43.634)" fill="#1d1f29"/>
          <path id="Path_85" data-name="Path 85" d="M794.133,112.343a.649.649,0,0,1-.649-.649V106.5a.649.649,0,1,1,1.3,0v5.193a.649.649,0,0,1-.649.649" transform="translate(-412.727 -54.615)" fill="#1d1f29"/>
          <path id="Path_86" data-name="Path 86" d="M1283.922,112.343a.65.65,0,0,1-.649-.649V106.5a.649.649,0,0,1,1.3,0v5.193a.651.651,0,0,1-.649.649" transform="translate(-665.325 -54.615)" fill="#1d1f29"/>
          <path id="Path_87" data-name="Path 87" d="M1271.032,101.362a.651.651,0,0,1-.649-.649V85.134a.649.649,0,1,1,1.3,0v15.579a.65.65,0,0,1-.649.649" transform="translate(-658.677 -43.634)" fill="#1d1f29"/>
          <path id="Path_88" data-name="Path 88" d="M1258.142,112.343a.651.651,0,0,1-.649-.649V106.5a.649.649,0,1,1,1.3,0v5.193a.65.65,0,0,1-.649.649" transform="translate(-652.029 -54.615)" fill="#1d1f29"/>
          <path id="Path_89" data-name="Path 89" d="M1245.262,101.362a.651.651,0,0,1-.649-.649V85.134a.649.649,0,0,1,1.3,0v15.579a.65.65,0,0,1-.649.649" transform="translate(-645.385 -43.634)" fill="#1d1f29"/>
          <path id="Path_90" data-name="Path 90" d="M1232.372,112.343a.65.65,0,0,1-.649-.649V106.5a.649.649,0,0,1,1.3,0v5.193a.651.651,0,0,1-.649.649" transform="translate(-638.738 -54.615)" fill="#1d1f29"/>
          <path id="Path_91" data-name="Path 91" d="M1219.482,101.362a.65.65,0,0,1-.649-.649V85.134a.649.649,0,1,1,1.3,0v15.579a.651.651,0,0,1-.649.649" transform="translate(-632.09 -43.634)" fill="#1d1f29"/>
          <path id="Path_92" data-name="Path 92" d="M1206.582,112.343a.65.65,0,0,1-.649-.649V106.5a.649.649,0,0,1,1.3,0v5.193a.65.65,0,0,1-.649.649" transform="translate(-625.439 -54.615)" fill="#1d1f29"/>
          <path id="Path_93" data-name="Path 93" d="M1193.7,101.361a.65.65,0,0,1-.649-.649V85.133a.651.651,0,1,1,1.3,0v15.579a.651.651,0,0,1-.649.649" transform="translate(-618.794 -43.633)" fill="#1d1f29"/>
          <path id="Path_94" data-name="Path 94" d="M1180.812,112.343a.651.651,0,0,1-.649-.649V106.5a.649.649,0,1,1,1.3,0v5.193a.65.65,0,0,1-.649.649" transform="translate(-612.147 -54.615)" fill="#1d1f29"/>
          <path id="Path_95" data-name="Path 95" d="M1167.922,90.383a.65.65,0,0,1-.649-.649V63.772a.649.649,0,1,1,1.3,0V89.734a.65.65,0,0,1-.649.649" transform="translate(-605.499 -32.655)" fill="#1d1f29"/>
          <path id="Path_96" data-name="Path 96" d="M1155.032,112.343a.651.651,0,0,1-.649-.649V106.5a.649.649,0,1,1,1.3,0v5.193a.65.65,0,0,1-.649.649" transform="translate(-598.852 -54.615)" fill="#1d1f29"/>
          <path id="Path_97" data-name="Path 97" d="M1142.142,101.362a.65.65,0,0,1-.649-.649V85.134a.649.649,0,1,1,1.3,0v15.579a.651.651,0,0,1-.649.649" transform="translate(-592.205 -43.634)" fill="#1d1f29"/>
          <path id="Path_98" data-name="Path 98" d="M1129.251,112.342a.65.65,0,0,1-.649-.649V106.5a.651.651,0,0,1,1.3,0v5.193a.651.651,0,0,1-.649.649" transform="translate(-585.557 -54.614)" fill="#1d1f29"/>
          <path id="Path_99" data-name="Path 99" d="M1116.362,101.362a.65.65,0,0,1-.649-.649V85.134a.649.649,0,1,1,1.3,0v15.579a.651.651,0,0,1-.649.649" transform="translate(-578.909 -43.634)" fill="#1d1f29"/>
          <path id="Path_100" data-name="Path 100" d="M1103.472,112.343a.65.65,0,0,1-.649-.649V106.5a.649.649,0,1,1,1.3,0v5.193a.65.65,0,0,1-.649.649" transform="translate(-572.262 -54.615)" fill="#1d1f29"/>
          <path id="Path_101" data-name="Path 101" d="M1090.582,101.362a.65.65,0,0,1-.649-.649V85.134a.649.649,0,1,1,1.3,0v15.579a.651.651,0,0,1-.649.649" transform="translate(-565.614 -43.634)" fill="#1d1f29"/>
          <path id="Path_102" data-name="Path 102" d="M1077.692,112.343a.651.651,0,0,1-.649-.649V106.5a.649.649,0,0,1,1.3,0v5.193a.651.651,0,0,1-.649.649" transform="translate(-558.966 -54.615)" fill="#1d1f29"/>
          <path id="Path_103" data-name="Path 103" d="M1064.8,101.362a.65.65,0,0,1-.649-.649V85.134a.649.649,0,0,1,1.3,0v15.579a.651.651,0,0,1-.649.649" transform="translate(-552.318 -43.634)" fill="#1d1f29"/>
          <path id="Path_104" data-name="Path 104" d="M1051.912,112.343a.65.65,0,0,1-.649-.649V106.5a.649.649,0,1,1,1.3,0v5.193a.65.65,0,0,1-.649.649" transform="translate(-545.671 -54.615)" fill="#1d1f29"/>
          <path id="Path_105" data-name="Path 105" d="M1541.712,112.343a.65.65,0,0,1-.649-.649V106.5a.649.649,0,1,1,1.3,0v5.193a.65.65,0,0,1-.649.649" transform="translate(-798.274 -54.615)" fill="#1d1f29"/>
          <path id="Path_106" data-name="Path 106" d="M1528.822,101.362a.65.65,0,0,1-.649-.649V85.134a.649.649,0,0,1,1.3,0v15.579a.65.65,0,0,1-.649.649" transform="translate(-791.625 -43.634)" fill="#1d1f29"/>
          <path id="Path_107" data-name="Path 107" d="M1515.932,112.343a.65.65,0,0,1-.649-.649V106.5a.649.649,0,0,1,1.3,0v5.193a.65.65,0,0,1-.649.649" transform="translate(-784.978 -54.615)" fill="#1d1f29"/>
          <path id="Path_108" data-name="Path 108" d="M1503.042,101.362a.65.65,0,0,1-.649-.649V85.134a.649.649,0,1,1,1.3,0v15.579a.651.651,0,0,1-.649.649" transform="translate(-778.33 -43.634)" fill="#1d1f29"/>
          <path id="Path_109" data-name="Path 109" d="M1490.152,112.343a.65.65,0,0,1-.649-.649V106.5a.649.649,0,1,1,1.3,0v5.193a.65.65,0,0,1-.649.649" transform="translate(-771.682 -54.615)" fill="#1d1f29"/>
          <path id="Path_110" data-name="Path 110" d="M1477.262,101.362a.65.65,0,0,1-.649-.649V85.134a.649.649,0,1,1,1.3,0v15.579a.651.651,0,0,1-.649.649" transform="translate(-765.035 -43.634)" fill="#1d1f29"/>
          <path id="Path_111" data-name="Path 111" d="M1464.372,112.343a.65.65,0,0,1-.649-.649V106.5a.649.649,0,1,1,1.3,0v5.193a.651.651,0,0,1-.649.649" transform="translate(-758.387 -54.615)" fill="#1d1f29"/>
          <path id="Path_112" data-name="Path 112" d="M1451.482,101.362a.65.65,0,0,1-.649-.649V85.134a.649.649,0,0,1,1.3,0v15.579a.65.65,0,0,1-.649.649" transform="translate(-751.74 -43.634)" fill="#1d1f29"/>
          <path id="Path_113" data-name="Path 113" d="M1438.592,112.343a.65.65,0,0,1-.649-.649V106.5a.649.649,0,0,1,1.3,0v5.193a.65.65,0,0,1-.649.649" transform="translate(-745.092 -54.615)" fill="#1d1f29"/>
          <path id="Path_114" data-name="Path 114" d="M1425.7,90.383a.651.651,0,0,1-.649-.649V63.772a.649.649,0,0,1,1.3,0V89.734a.65.65,0,0,1-.649.649" transform="translate(-738.445 -32.655)" fill="#1d1f29"/>
          <path id="Path_115" data-name="Path 115" d="M1412.812,112.343a.651.651,0,0,1-.649-.649V106.5a.649.649,0,1,1,1.3,0v5.193a.65.65,0,0,1-.649.649" transform="translate(-731.797 -54.615)" fill="#1d1f29"/>
          <path id="Path_116" data-name="Path 116" d="M1399.931,101.362a.651.651,0,0,1-.649-.649V85.134a.649.649,0,1,1,1.3,0v15.579a.65.65,0,0,1-.648.649" transform="translate(-725.153 -43.634)" fill="#1d1f29"/>
          <path id="Path_117" data-name="Path 117" d="M1387.042,112.343a.651.651,0,0,1-.649-.649V106.5a.649.649,0,0,1,1.3,0v5.193a.65.65,0,0,1-.649.649" transform="translate(-718.505 -54.615)" fill="#1d1f29"/>
          <path id="Path_118" data-name="Path 118" d="M1374.152,101.362a.651.651,0,0,1-.649-.649V85.134a.649.649,0,0,1,1.3,0v15.579a.65.65,0,0,1-.649.649" transform="translate(-711.858 -43.634)" fill="#1d1f29"/>
          <path id="Path_119" data-name="Path 119" d="M1361.262,112.343a.651.651,0,0,1-.649-.649V106.5a.649.649,0,1,1,1.3,0v5.193a.65.65,0,0,1-.648.649" transform="translate(-705.21 -54.615)" fill="#1d1f29"/>
          <path id="Path_120" data-name="Path 120" d="M1348.372,101.362a.651.651,0,0,1-.649-.649V85.134a.649.649,0,0,1,1.3,0v15.579a.65.65,0,0,1-.649.649" transform="translate(-698.563 -43.634)" fill="#1d1f29"/>
          <path id="Path_121" data-name="Path 121" d="M1335.482,112.343a.651.651,0,0,1-.649-.649V106.5a.649.649,0,1,1,1.3,0v5.193a.65.65,0,0,1-.649.649" transform="translate(-691.915 -54.615)" fill="#1d1f29"/>
          <path id="Path_122" data-name="Path 122" d="M1322.592,101.362a.651.651,0,0,1-.649-.649V85.134a.649.649,0,1,1,1.3,0v15.579a.65.65,0,0,1-.649.649" transform="translate(-685.267 -43.634)" fill="#1d1f29"/>
          <path id="Path_123" data-name="Path 123" d="M1309.7,112.343a.651.651,0,0,1-.649-.649V106.5a.649.649,0,1,1,1.3,0v5.193a.65.65,0,0,1-.649.649" transform="translate(-678.62 -54.615)" fill="#1d1f29"/>
          <path id="Path_124" data-name="Path 124" d="M1799.492,112.343a.651.651,0,0,1-.649-.649V106.5a.649.649,0,1,1,1.3,0v5.193a.65.65,0,0,1-.649.649" transform="translate(-931.709 -54.615)" fill="#1d1f29"/>
          <path id="Path_125" data-name="Path 125" d="M1786.6,101.362a.651.651,0,0,1-.649-.649V85.134a.649.649,0,1,1,1.3,0v15.579a.65.65,0,0,1-.649.649" transform="translate(-925.084 -43.634)" fill="#1d1f29"/>
          <path id="Path_126" data-name="Path 126" d="M1773.712,112.343a.651.651,0,0,1-.649-.649V106.5a.649.649,0,1,1,1.3,0v5.193a.65.65,0,0,1-.649.649" transform="translate(-918.459 -54.615)" fill="#1d1f29"/>
          <path id="Path_127" data-name="Path 127" d="M1760.822,101.362a.651.651,0,0,1-.649-.649V85.134a.649.649,0,1,1,1.3,0v15.579a.65.65,0,0,1-.649.649" transform="translate(-911.836 -43.634)" fill="#1d1f29"/>
          <path id="Path_128" data-name="Path 128" d="M1747.932,112.343a.65.65,0,0,1-.649-.649V106.5a.649.649,0,1,1,1.3,0v5.193a.65.65,0,0,1-.649.649" transform="translate(-905.211 -54.615)" fill="#1d1f29"/>
          <path id="Path_129" data-name="Path 129" d="M1735.042,101.362a.651.651,0,0,1-.649-.649V85.134a.649.649,0,0,1,1.3,0v15.579a.651.651,0,0,1-.649.649" transform="translate(-898.587 -43.634)" fill="#1d1f29"/>
          <path id="Path_130" data-name="Path 130" d="M1722.162,112.343a.65.65,0,0,1-.649-.649V106.5a.649.649,0,1,1,1.3,0v5.193a.651.651,0,0,1-.649.649" transform="translate(-891.967 -54.615)" fill="#1d1f29"/>
          <path id="Path_131" data-name="Path 131" d="M1709.272,101.362a.65.65,0,0,1-.649-.649V85.134a.649.649,0,0,1,1.3,0v15.579a.651.651,0,0,1-.649.649" transform="translate(-885.343 -43.634)" fill="#1d1f29"/>
          <path id="Path_132" data-name="Path 132" d="M1696.382,112.343a.651.651,0,0,1-.649-.649V106.5a.649.649,0,1,1,1.3,0v5.193a.65.65,0,0,1-.649.649" transform="translate(-878.718 -54.615)" fill="#1d1f29"/>
          <path id="Path_133" data-name="Path 133" d="M1683.492,90.383a.65.65,0,0,1-.649-.649V63.772a.649.649,0,1,1,1.3,0V89.734a.65.65,0,0,1-.649.649" transform="translate(-872.094 -32.655)" fill="#1d1f29"/>
          <path id="Path_134" data-name="Path 134" d="M1670.6,112.343a.65.65,0,0,1-.649-.649V106.5a.649.649,0,1,1,1.3,0v5.193a.65.65,0,0,1-.649.649" transform="translate(-865.47 -54.615)" fill="#1d1f29"/>
          <path id="Path_135" data-name="Path 135" d="M1657.712,101.362a.65.65,0,0,1-.649-.649V85.134a.649.649,0,0,1,1.3,0v15.579a.651.651,0,0,1-.649.649" transform="translate(-858.098 -43.634)" fill="#1d1f29"/>
          <path id="Path_136" data-name="Path 136" d="M1644.821,112.342a.65.65,0,0,1-.649-.649V106.5a.651.651,0,0,1,1.3,0v5.193a.65.65,0,0,1-.649.649" transform="translate(-851.449 -54.614)" fill="#1d1f29"/>
          <path id="Path_137" data-name="Path 137" d="M1631.932,101.362a.65.65,0,0,1-.649-.649V85.134a.649.649,0,0,1,1.3,0v15.579a.651.651,0,0,1-.649.649" transform="translate(-844.802 -43.634)" fill="#1d1f29"/>
          <path id="Path_138" data-name="Path 138" d="M1619.042,112.343a.651.651,0,0,1-.649-.649V106.5a.649.649,0,1,1,1.3,0v5.193a.65.65,0,0,1-.649.649" transform="translate(-838.155 -54.615)" fill="#1d1f29"/>
          <path id="Path_139" data-name="Path 139" d="M1606.152,101.362a.65.65,0,0,1-.649-.649V85.134a.649.649,0,1,1,1.3,0v15.579a.65.65,0,0,1-.649.649" transform="translate(-831.507 -43.634)" fill="#1d1f29"/>
          <path id="Path_140" data-name="Path 140" d="M1593.262,112.343a.65.65,0,0,1-.649-.649V106.5a.649.649,0,1,1,1.3,0v5.193a.651.651,0,0,1-.649.649" transform="translate(-824.859 -54.615)" fill="#1d1f29"/>
          <path id="Path_141" data-name="Path 141" d="M1580.381,101.361a.65.65,0,0,1-.649-.649V85.133a.651.651,0,0,1,1.3,0v15.579a.65.65,0,0,1-.649.649" transform="translate(-818.216 -43.633)" fill="#1d1f29"/>
          <path id="Path_142" data-name="Path 142" d="M1567.492,112.343a.65.65,0,0,1-.649-.649V106.5a.649.649,0,1,1,1.3,0v5.193a.65.65,0,0,1-.649.649" transform="translate(-811.569 -54.615)" fill="#1d1f29"/>
          <path id="Path_143" data-name="Path 143" d="M2057.271,112.343a.65.65,0,0,1-.649-.649V106.5a.649.649,0,1,1,1.3,0v5.193a.65.65,0,0,1-.649.649" transform="translate(-1064.186 -54.615)" fill="#1d1f29"/>
          <path id="Path_144" data-name="Path 144" d="M2044.392,101.362a.65.65,0,0,1-.649-.649V85.134a.649.649,0,1,1,1.3,0v15.579a.651.651,0,0,1-.649.649" transform="translate(-1057.566 -43.634)" fill="#1d1f29"/>
          <path id="Path_145" data-name="Path 145" d="M2031.5,112.343a.65.65,0,0,1-.649-.649V106.5a.649.649,0,0,1,1.3,0v5.193a.651.651,0,0,1-.649.649" transform="translate(-1050.941 -54.615)" fill="#1d1f29"/>
          <path id="Path_146" data-name="Path 146" d="M2018.612,101.362a.65.65,0,0,1-.648-.649V85.134a.649.649,0,1,1,1.3,0v15.579a.651.651,0,0,1-.649.649" transform="translate(-1044.318 -43.634)" fill="#1d1f29"/>
          <path id="Path_147" data-name="Path 147" d="M2005.722,112.343a.651.651,0,0,1-.649-.649V106.5a.649.649,0,0,1,1.3,0v5.193a.65.65,0,0,1-.649.649" transform="translate(-1037.693 -54.615)" fill="#1d1f29"/>
          <path id="Path_148" data-name="Path 148" d="M1992.832,101.362a.651.651,0,0,1-.649-.649V85.134a.649.649,0,1,1,1.3,0v15.579a.65.65,0,0,1-.649.649" transform="translate(-1031.069 -43.634)" fill="#1d1f29"/>
          <path id="Path_149" data-name="Path 149" d="M1979.942,112.343a.651.651,0,0,1-.649-.649V106.5a.649.649,0,1,1,1.3,0v5.193a.65.65,0,0,1-.649.649" transform="translate(-1024.444 -54.615)" fill="#1d1f29"/>
          <path id="Path_150" data-name="Path 150" d="M1967.052,101.362a.651.651,0,0,1-.649-.649V85.134a.649.649,0,1,1,1.3,0v15.579a.65.65,0,0,1-.649.649" transform="translate(-1017.82 -43.634)" fill="#1d1f29"/>
          <path id="Path_151" data-name="Path 151" d="M1954.162,112.343a.651.651,0,0,1-.649-.649V106.5a.649.649,0,0,1,1.3,0v5.193a.65.65,0,0,1-.649.649" transform="translate(-1011.196 -54.615)" fill="#1d1f29"/>
          <path id="Path_152" data-name="Path 152" d="M1941.272,90.383a.651.651,0,0,1-.649-.649V63.772a.649.649,0,1,1,1.3,0V89.734a.65.65,0,0,1-.649.649" transform="translate(-1004.571 -32.655)" fill="#1d1f29"/>
          <path id="Path_153" data-name="Path 153" d="M1928.382,112.343a.65.65,0,0,1-.649-.649V106.5a.649.649,0,1,1,1.3,0v5.193a.651.651,0,0,1-.649.649" transform="translate(-997.947 -54.615)" fill="#1d1f29"/>
          <path id="Path_154" data-name="Path 154" d="M1915.492,101.362a.651.651,0,0,1-.649-.649V85.134a.649.649,0,0,1,1.3,0v15.579a.65.65,0,0,1-.649.649" transform="translate(-991.323 -43.634)" fill="#1d1f29"/>
          <path id="Path_155" data-name="Path 155" d="M1902.6,112.343a.65.65,0,0,1-.649-.649V106.5a.649.649,0,1,1,1.3,0v5.193a.65.65,0,0,1-.649.649" transform="translate(-984.699 -54.615)" fill="#1d1f29"/>
          <path id="Path_156" data-name="Path 156" d="M1889.712,101.362a.65.65,0,0,1-.649-.649V85.134a.649.649,0,1,1,1.3,0v15.579a.65.65,0,0,1-.649.649" transform="translate(-978.075 -43.634)" fill="#1d1f29"/>
          <path id="Path_157" data-name="Path 157" d="M1876.822,112.343a.651.651,0,0,1-.649-.649V106.5a.649.649,0,0,1,1.3,0v5.193a.65.65,0,0,1-.649.649" transform="translate(-971.45 -54.615)" fill="#1d1f29"/>
          <path id="Path_158" data-name="Path 158" d="M1863.942,101.362a.651.651,0,0,1-.649-.649V85.134a.649.649,0,1,1,1.3,0v15.579a.65.65,0,0,1-.649.649" transform="translate(-964.83 -43.634)" fill="#1d1f29"/>
          <path id="Path_159" data-name="Path 159" d="M1851.051,112.342a.651.651,0,0,1-.649-.649V106.5a.651.651,0,1,1,1.3,0v5.193a.65.65,0,0,1-.649.649" transform="translate(-958.205 -54.614)" fill="#1d1f29"/>
          <path id="Path_160" data-name="Path 160" d="M1838.162,101.362a.65.65,0,0,1-.649-.649V85.134a.649.649,0,1,1,1.3,0v15.579a.65.65,0,0,1-.649.649" transform="translate(-951.581 -43.634)" fill="#1d1f29"/>
          <path id="Path_161" data-name="Path 161" d="M1825.272,112.343a.651.651,0,0,1-.649-.649V106.5a.649.649,0,1,1,1.3,0v5.193a.651.651,0,0,1-.649.649" transform="translate(-944.957 -54.615)" fill="#1d1f29"/>
          <path id="Path_167" data-name="Path 167" d="M261.654,3.673a5.469,5.469,0,0,1-2.518.778V2.789A3.111,3.111,0,0,0,262.252.372h1.4V18.54h-2Z" transform="translate(-136.692 -0.192)" fill="#1d1f29"/>
          <path id="Path_168" data-name="Path 168" d="M524.117,4.595c0,5.474-6.151,7.447-6.176,11.626V16.5h5.969v1.843h-7.967V16.792c0-5.865,6.15-7.006,6.15-12.12,0-1.866-.62-2.85-2.128-2.85-1.478,0-2.128,1.063-2.128,2.672V6.1h-1.894V4.62c0-2.777,1.275-4.62,4.073-4.62,2.829,0,4.1,1.818,4.1,4.595" transform="translate(-269.597)" fill="#1d1f29"/>
          <path id="Path_169" data-name="Path 169" d="M781.69,4.569v.466c0,1.869-.753,3.192-2.206,3.738,1.531.57,2.206,1.944,2.206,3.763v1.4c0,2.777-1.3,4.595-4.1,4.595-2.777,0-4.073-1.818-4.073-4.595V12.691h1.894v1.375c0,1.636.674,2.622,2.128,2.622,1.479,0,2.128-.961,2.128-2.8v-1.4c0-1.79-.753-2.647-2.283-2.7h-1.088V7.967h1.194a2.179,2.179,0,0,0,2.18-2.49V4.647c0-1.869-.649-2.827-2.128-2.827-1.454,0-2.128,1.011-2.128,2.647V5.4h-1.894V4.569c0-2.78,1.3-4.569,4.073-4.569,2.8,0,4.1,1.79,4.1,4.569" transform="translate(-402.438)" fill="#1d1f29"/>
          <path id="Path_170" data-name="Path 170" d="M1038.038,14.882v3.656h-1.973V14.882H1030.2V13.038L1035.833.376h2.206V13.038h1.453v1.843Zm-5.969-1.843h4V4.164Z" transform="translate(-534.823 -0.193)" fill="#1d1f29"/>
          <path id="Path_171" data-name="Path 171" d="M1291.24,7.771a2.929,2.929,0,0,1,2.7-1.506c2.335,0,3.373,1.714,3.373,4.308v3.555c0,2.777-1.324,4.595-4.1,4.595s-4.075-1.818-4.075-4.595V12.906h1.9v1.351c0,1.635.674,2.622,2.127,2.622s2.128-.986,2.128-2.622V10.725c0-1.633-.675-2.619-2.128-2.619a1.957,1.957,0,0,0-2.051,1.945v.416h-1.894l.5-10.094h7.16V2.189h-5.345Z" transform="translate(-668.365 -0.192)" fill="#1d1f29"/>
          <path id="Path_172" data-name="Path 172" d="M1555.039,4.541v.337h-1.894V4.412c0-1.635-.675-2.594-2.153-2.594-1.532,0-2.206.986-2.206,2.931V8.824a2.923,2.923,0,0,1,2.931-1.948c2.336,0,3.375,1.689,3.375,4.308v2.751c0,2.777-1.377,4.595-4.151,4.595-2.8,0-4.179-1.818-4.179-4.595V4.67c0-2.881,1.3-4.67,4.179-4.67,2.8,0,4.1,1.765,4.1,4.541m-6.254,6.8v2.726c0,1.636.674,2.622,2.153,2.622,1.452,0,2.155-.986,2.155-2.622V11.339c0-1.636-.7-2.622-2.155-2.622-1.478,0-2.153.986-2.153,2.622" transform="translate(-801.232)" fill="#1d1f29"/>
          <path id="Path_173" data-name="Path 173" d="M1813.678,2.191H1807.5V.375h8.225V2.14l-4.67,16.4h-2.024Z" transform="translate(-936.158 -0.193)" fill="#1d1f29"/>
          <path id="Path_174" data-name="Path 174" d="M2070.6,4.49v.57c0,1.843-.65,3.192-2.076,3.738,1.506.6,2.076,2.023,2.076,3.839v1.351c0,2.8-1.453,4.541-4.283,4.541s-4.28-1.739-4.28-4.541V12.637c0-1.841.57-3.218,2.1-3.839-1.481-.571-2.1-1.894-2.1-3.738V4.49c0-2.8,1.478-4.49,4.28-4.49s4.283,1.689,4.283,4.49m-6.565.051v.882c0,1.765.855,2.541,2.282,2.541s2.284-.779,2.284-2.541V4.541c0-1.869-.857-2.723-2.284-2.723s-2.282.854-2.282,2.723m0,7.863v1.531c0,1.869.829,2.751,2.282,2.751s2.259-.883,2.284-2.751V12.4c0-1.765-.779-2.62-2.284-2.62s-2.282.855-2.282,2.62" transform="translate(-1070.688 0)" fill="#1d1f29"/>
          <path id="Path_175" data-name="Path 175" d="M0,4.569C0,1.79,1.376,0,4.152,0c2.8,0,4.178,1.79,4.178,4.569v9.366c0,2.777-1.374,4.595-4.178,4.595C1.376,18.527,0,16.712,0,13.936Zm2,9.5c0,1.636.7,2.622,2.154,2.622,1.48,0,2.154-.986,2.154-2.622v-9.6c0-1.661-.675-2.647-2.154-2.647C2.7,1.818,2,2.8,2,4.465Z" transform="translate(0.2)" fill="#1d1f29"/>
        </g>
      </g>
      <g id="Group_8" data-name="Group 8" transform="translate(40.026)">
        <rect id="Rectangle_1" data-name="Rectangle 1" width="1.534" height="13.768" transform="translate(0 0.138)" fill="#1d1f29"/>
        <path id="Path_409" data-name="Path 409" d="M18.86.375v9.953L15.674.375H13.726V14.146H15.1V3.01l3.521,11.136h1.592V.375Z" transform="translate(-8.669 -0.237)" fill="#1d1f29"/>
        <g id="Group_7" data-name="Group 7">
          <g id="Group_6" data-name="Group 6" clip-path="url(#clip-path)">
            <path id="Path_410" data-name="Path 410" d="M46.845,3.463V4.7H45.391V3.384c0-1.239-.492-1.987-1.611-1.987-1.1,0-1.611.747-1.611,1.987v7.273c0,1.239.511,1.987,1.611,1.987,1.122,0,1.611-.747,1.611-1.987V8.871h1.456v1.71c0,2.085-.984,3.463-3.107,3.463-2.107,0-3.088-1.378-3.088-3.463V3.463c0-2.085.981-3.463,3.086-3.463,2.123,0,3.107,1.378,3.107,3.463" transform="translate(-25.674)" fill="#1d1f29"/>
            <path id="Path_411" data-name="Path 411" d="M68.142,7.95v6.2H66.608V.375h1.534v6.2h3.383V.375H73.06V14.143H71.525v-6.2Z" transform="translate(-42.068 -0.237)" fill="#1d1f29"/>
            <path id="Path_412" data-name="Path 412" d="M98.64,6.474V7.85H95.278v4.9h4.131v1.4H93.744V.376h5.665v1.4H95.278v4.7Z" transform="translate(-59.207 -0.238)" fill="#1d1f29"/>
            <path id="Path_413" data-name="Path 413" d="M123.907,3.442v.372h-1.456V3.363c0-1.239-.472-1.966-1.573-1.966s-1.577.729-1.577,1.949c0,3.088,4.622,3.383,4.622,7.258,0,2.083-1,3.442-3.107,3.442s-3.087-1.359-3.087-3.442v-.79h1.435v.867c0,1.239.511,1.966,1.611,1.966s1.611-.729,1.611-1.966c0-3.069-4.6-3.365-4.6-7.239,0-2.123.983-3.442,3.049-3.442,2.084,0,3.068,1.356,3.068,3.442" transform="translate(-74.355 0)" fill="#1d1f29"/>
          </g>
        </g>
      </g>
    </g>
  </g>
</svg>
