<svg xmlns="http://www.w3.org/2000/svg" width="999.998" height="61.222" viewBox="0 0 999.998 61.222">
  <g id="Group_9" data-name="Group 9" transform="translate(-649 -532)">
    <g id="Group_8" data-name="Group 8">
      <g id="Group_7" data-name="Group 7">
        <g id="Group_6" data-name="Group 6">
          <path id="Path_176" data-name="Path 176" d="M1936.2,0a.662.662,0,0,0-.66.66v31.7a.66.66,0,0,0,1.32,0V.66a.661.661,0,0,0-.66-.66" transform="translate(-338.047 560.18)" fill="#1d1f29"/>
          <path id="Path_177" data-name="Path 177" d="M1834.71,0a.662.662,0,0,0-.66.66v31.7a.66.66,0,0,0,1.32,0V.66a.661.661,0,0,0-.66-.66" transform="translate(-286.742 560.18)" fill="#1d1f29"/>
          <path id="Path_178" data-name="Path 178" d="M2037.69,0a.662.662,0,0,0-.66.66v31.7a.66.66,0,0,0,1.32,0V.66a.662.662,0,0,0-.66-.66" transform="translate(-389.352 560.18)" fill="#1d1f29"/>
          <path id="Path_179" data-name="Path 179" d="M1733.22,0a.662.662,0,0,0-.66.66v31.7a.66.66,0,0,0,1.32,0V.66a.661.661,0,0,0-.66-.66" transform="translate(-235.437 560.18)" fill="#1d1f29"/>
          <path id="Path_180" data-name="Path 180" d="M1631.73,0a.662.662,0,0,0-.66.66v31.7a.66.66,0,0,0,1.32,0V.66a.661.661,0,0,0-.66-.66" transform="translate(-183.128 560.18)" fill="#1d1f29"/>
          <path id="Path_181" data-name="Path 181" d="M1530.24,0a.662.662,0,0,0-.66.66v31.7a.66.66,0,0,0,1.32,0V.66a.661.661,0,0,0-.66-.66" transform="translate(-131.572 560.18)" fill="#1d1f29"/>
          <path id="Path_182" data-name="Path 182" d="M1428.75,0a.662.662,0,0,0-.66.66v31.7a.66.66,0,1,0,1.32,0V.66a.662.662,0,0,0-.66-.66" transform="translate(-80.016 560.18)" fill="#1d1f29"/>
          <path id="Path_183" data-name="Path 183" d="M1327.26,0a.662.662,0,0,0-.661.66v31.7a.66.66,0,0,0,1.32,0V.66a.661.661,0,0,0-.66-.66" transform="translate(-28.459 560.18)" fill="#1d1f29"/>
          <path id="Path_184" data-name="Path 184" d="M1225.77,0a.662.662,0,0,0-.66.66v31.7a.66.66,0,0,0,1.32,0V.66a.662.662,0,0,0-.66-.66" transform="translate(23.097 560.18)" fill="#1d1f29"/>
          <path id="Path_185" data-name="Path 185" d="M1124.28,0a.662.662,0,0,0-.66.66v31.7a.66.66,0,0,0,1.32,0V.66a.662.662,0,0,0-.66-.66" transform="translate(74.653 560.18)" fill="#1d1f29"/>
          <path id="Path_186" data-name="Path 186" d="M1022.79,0a.661.661,0,0,0-.66.66v31.7a.66.66,0,0,0,1.32,0V.66a.661.661,0,0,0-.66-.66" transform="translate(126.207 560.18)" fill="#1d1f29"/>
          <path id="Path_187" data-name="Path 187" d="M921.3,0a.661.661,0,0,0-.66.66v31.7a.66.66,0,1,0,1.32,0V.66A.661.661,0,0,0,921.3,0" transform="translate(177.763 560.18)" fill="#1d1f29"/>
          <path id="Path_188" data-name="Path 188" d="M819.814,0a.661.661,0,0,0-.66.66v31.7a.66.66,0,0,0,1.32,0V.66a.661.661,0,0,0-.66-.66" transform="translate(229.319 560.18)" fill="#1d1f29"/>
          <path id="Path_189" data-name="Path 189" d="M718.324,0a.661.661,0,0,0-.66.66v31.7a.66.66,0,1,0,1.32,0V.66a.661.661,0,0,0-.66-.66" transform="translate(280.876 560.18)" fill="#1d1f29"/>
          <path id="Path_190" data-name="Path 190" d="M616.833,0a.661.661,0,0,0-.66.66v31.7a.66.66,0,1,0,1.32,0V.66a.661.661,0,0,0-.66-.66" transform="translate(332.432 560.18)" fill="#1d1f29"/>
          <path id="Path_191" data-name="Path 191" d="M515.343,0a.661.661,0,0,0-.66.66v31.7a.66.66,0,1,0,1.32,0V.66a.661.661,0,0,0-.66-.66" transform="translate(383.988 560.18)" fill="#1d1f29"/>
          <path id="Path_192" data-name="Path 192" d="M413.853,0a.661.661,0,0,0-.66.66v31.7a.66.66,0,0,0,1.32,0V.66a.661.661,0,0,0-.66-.66" transform="translate(435.544 560.18)" fill="#1d1f29"/>
          <path id="Path_193" data-name="Path 193" d="M312.363,0a.661.661,0,0,0-.66.66v31.7a.66.66,0,0,0,1.32,0V.66a.661.661,0,0,0-.66-.66" transform="translate(487.853 560.18)" fill="#1d1f29"/>
          <path id="Path_194" data-name="Path 194" d="M210.873,0a.661.661,0,0,0-.66.66v31.7a.66.66,0,0,0,1.32,0V.66a.661.661,0,0,0-.66-.66" transform="translate(539.158 560.18)" fill="#1d1f29"/>
          <path id="Path_195" data-name="Path 195" d="M109.383,0a.661.661,0,0,0-.66.66v31.7a.66.66,0,0,0,1.32,0V.66a.661.661,0,0,0-.66-.66" transform="translate(590.463 560.18)" fill="#1d1f29"/>
          <path id="Path_196" data-name="Path 196" d="M7.89,0a.661.661,0,0,0-.66.66v31.7a.66.66,0,0,0,1.32,0V.66A.661.661,0,0,0,7.89,0" transform="translate(641.77 560.18)" fill="#1d1f29"/>
          <path id="Path_197" data-name="Path 197" d="M18.041,0a.661.661,0,0,0-.66.66V16.508a.66.66,0,1,0,1.32,0V.66a.661.661,0,0,0-.66-.66" transform="translate(636.638 576.028)" fill="#1d1f29"/>
          <path id="Path_198" data-name="Path 198" d="M28.19,0a.661.661,0,0,0-.66.66V16.508a.66.66,0,0,0,1.32,0V.66A.661.661,0,0,0,28.19,0" transform="translate(631.508 576.028)" fill="#1d1f29"/>
          <path id="Path_199" data-name="Path 199" d="M38.338,0a.661.661,0,0,0-.66.66V16.508a.66.66,0,0,0,1.32,0V.66a.661.661,0,0,0-.66-.66" transform="translate(626.378 576.028)" fill="#1d1f29"/>
          <path id="Path_200" data-name="Path 200" d="M48.487,0a.661.661,0,0,0-.66.66V16.508a.66.66,0,0,0,1.32,0V.66a.661.661,0,0,0-.66-.66" transform="translate(621.247 576.028)" fill="#1d1f29"/>
          <path id="Path_201" data-name="Path 201" d="M58.638,0a.661.661,0,0,0-.66.66v25.7a.66.66,0,1,0,1.32,0V.66a.661.661,0,0,0-.66-.66" transform="translate(616.116 566.18)" fill="#1d1f29"/>
          <path id="Path_202" data-name="Path 202" d="M68.786,0a.661.661,0,0,0-.66.66V16.508a.66.66,0,1,0,1.32,0V.66a.661.661,0,0,0-.66-.66" transform="translate(610.986 576.028)" fill="#1d1f29"/>
          <path id="Path_203" data-name="Path 203" d="M78.935,0a.661.661,0,0,0-.66.66V16.508a.66.66,0,0,0,1.32,0V.66a.661.661,0,0,0-.66-.66" transform="translate(605.855 576.028)" fill="#1d1f29"/>
          <path id="Path_204" data-name="Path 204" d="M89.083,0a.661.661,0,0,0-.66.66V16.508a.66.66,0,0,0,1.32,0V.66a.661.661,0,0,0-.66-.66" transform="translate(600.725 576.028)" fill="#1d1f29"/>
          <path id="Path_205" data-name="Path 205" d="M99.232,0a.661.661,0,0,0-.66.66V16.508a.66.66,0,0,0,1.32,0V.66a.661.661,0,0,0-.66-.66" transform="translate(595.595 576.028)" fill="#1d1f29"/>
          <path id="Path_206" data-name="Path 206" d="M119.531,0a.661.661,0,0,0-.66.66V16.508a.66.66,0,1,0,1.32,0V.66a.661.661,0,0,0-.66-.66" transform="translate(585.333 576.028)" fill="#1d1f29"/>
          <path id="Path_207" data-name="Path 207" d="M129.68,0a.661.661,0,0,0-.66.66V16.508a.66.66,0,0,0,1.32,0V.66a.661.661,0,0,0-.66-.66" transform="translate(580.203 576.028)" fill="#1d1f29"/>
          <path id="Path_208" data-name="Path 208" d="M139.828,0a.661.661,0,0,0-.66.66V16.508a.66.66,0,0,0,1.32,0V.66a.661.661,0,0,0-.66-.66" transform="translate(575.073 576.028)" fill="#1d1f29"/>
          <path id="Path_209" data-name="Path 209" d="M149.977,0a.661.661,0,0,0-.66.66V16.508a.66.66,0,0,0,1.32,0V.66a.661.661,0,0,0-.66-.66" transform="translate(569.942 576.028)" fill="#1d1f29"/>
          <path id="Path_210" data-name="Path 210" d="M160.128,0a.661.661,0,0,0-.66.66v25.7a.66.66,0,1,0,1.32,0V.66a.661.661,0,0,0-.66-.66" transform="translate(564.811 566.18)" fill="#1d1f29"/>
          <path id="Path_211" data-name="Path 211" d="M170.277,0a.661.661,0,0,0-.66.66V16.508a.66.66,0,0,0,1.32,0V.66a.661.661,0,0,0-.66-.66" transform="translate(559.68 576.028)" fill="#1d1f29"/>
          <path id="Path_212" data-name="Path 212" d="M180.425,0a.661.661,0,0,0-.66.66V16.508a.66.66,0,0,0,1.32,0V.66a.661.661,0,0,0-.66-.66" transform="translate(554.55 576.028)" fill="#1d1f29"/>
          <path id="Path_213" data-name="Path 213" d="M190.574,0a.661.661,0,0,0-.661.66V16.508a.66.66,0,0,0,1.32,0V.66a.661.661,0,0,0-.66-.66" transform="translate(549.42 576.028)" fill="#1d1f29"/>
          <path id="Path_214" data-name="Path 214" d="M200.722,0a.661.661,0,0,0-.66.66V16.508a.66.66,0,0,0,1.32,0V.66a.661.661,0,0,0-.66-.66" transform="translate(544.29 576.028)" fill="#1d1f29"/>
          <path id="Path_215" data-name="Path 215" d="M221.022,0a.661.661,0,0,0-.66.66V16.508a.66.66,0,0,0,1.32,0V.66a.661.661,0,0,0-.66-.66" transform="translate(534.028 576.028)" fill="#1d1f29"/>
          <path id="Path_216" data-name="Path 216" d="M231.17,0a.661.661,0,0,0-.66.66V16.508a.66.66,0,0,0,1.32,0V.66a.661.661,0,0,0-.66-.66" transform="translate(528.898 576.028)" fill="#1d1f29"/>
          <path id="Path_217" data-name="Path 217" d="M241.318,0a.661.661,0,0,0-.66.66V16.508a.66.66,0,0,0,1.32,0V.66a.661.661,0,0,0-.66-.66" transform="translate(523.768 576.028)" fill="#1d1f29"/>
          <path id="Path_218" data-name="Path 218" d="M251.467,0a.661.661,0,0,0-.66.66V16.508a.66.66,0,0,0,1.32,0V.66a.661.661,0,0,0-.66-.66" transform="translate(518.637 576.028)" fill="#1d1f29"/>
          <path id="Path_219" data-name="Path 219" d="M261.618,0a.661.661,0,0,0-.66.66v25.7a.66.66,0,0,0,1.32,0V.66a.661.661,0,0,0-.66-.66" transform="translate(513.506 566.18)" fill="#1d1f29"/>
          <path id="Path_220" data-name="Path 220" d="M271.767,0a.661.661,0,0,0-.66.66V16.508a.66.66,0,0,0,1.32,0V.66a.661.661,0,0,0-.66-.66" transform="translate(508.375 576.028)" fill="#1d1f29"/>
          <path id="Path_221" data-name="Path 221" d="M281.915,0a.661.661,0,0,0-.66.66V16.508a.66.66,0,1,0,1.32,0V.66a.661.661,0,0,0-.66-.66" transform="translate(503.245 576.028)" fill="#1d1f29"/>
          <path id="Path_222" data-name="Path 222" d="M292.064,0a.661.661,0,0,0-.66.66V16.508a.66.66,0,0,0,1.32,0V.66a.661.661,0,0,0-.66-.66" transform="translate(498.115 576.028)" fill="#1d1f29"/>
          <path id="Path_223" data-name="Path 223" d="M302.212,0a.661.661,0,0,0-.66.66V16.508a.66.66,0,1,0,1.32,0V.66a.661.661,0,0,0-.66-.66" transform="translate(492.985 576.028)" fill="#1d1f29"/>
          <path id="Path_224" data-name="Path 224" d="M322.512,0a.661.661,0,0,0-.66.66V16.508a.66.66,0,0,0,1.32,0V.66a.661.661,0,0,0-.66-.66" transform="translate(482.723 576.028)" fill="#1d1f29"/>
          <path id="Path_225" data-name="Path 225" d="M332.66,0a.661.661,0,0,0-.66.66V16.508a.66.66,0,1,0,1.32,0V.66a.661.661,0,0,0-.66-.66" transform="translate(477.593 576.028)" fill="#1d1f29"/>
          <path id="Path_226" data-name="Path 226" d="M342.809,0a.661.661,0,0,0-.66.66V16.508a.66.66,0,0,0,1.32,0V.66a.661.661,0,0,0-.66-.66" transform="translate(472.462 576.028)" fill="#1d1f29"/>
          <path id="Path_227" data-name="Path 227" d="M352.957,0a.661.661,0,0,0-.66.66V16.508a.66.66,0,0,0,1.32,0V.66a.661.661,0,0,0-.66-.66" transform="translate(467.332 576.028)" fill="#1d1f29"/>
          <path id="Path_228" data-name="Path 228" d="M363.108,0a.661.661,0,0,0-.66.66v25.7a.66.66,0,0,0,1.32,0V.66a.661.661,0,0,0-.66-.66" transform="translate(462.201 566.18)" fill="#1d1f29"/>
          <path id="Path_229" data-name="Path 229" d="M373.257,0a.661.661,0,0,0-.66.66V16.508a.66.66,0,0,0,1.32,0V.66a.661.661,0,0,0-.66-.66" transform="translate(457.07 576.028)" fill="#1d1f29"/>
          <path id="Path_230" data-name="Path 230" d="M383.4,0a.661.661,0,0,0-.66.66V16.508a.66.66,0,1,0,1.32,0V.66A.661.661,0,0,0,383.4,0" transform="translate(451.94 576.028)" fill="#1d1f29"/>
          <path id="Path_231" data-name="Path 231" d="M393.554,0a.661.661,0,0,0-.66.66V16.508a.66.66,0,0,0,1.32,0V.66a.661.661,0,0,0-.66-.66" transform="translate(446.81 576.028)" fill="#1d1f29"/>
          <path id="Path_232" data-name="Path 232" d="M403.7,0a.661.661,0,0,0-.66.66V16.508a.66.66,0,0,0,1.32,0V.66A.661.661,0,0,0,403.7,0" transform="translate(441.68 576.028)" fill="#1d1f29"/>
          <path id="Path_233" data-name="Path 233" d="M424,0a.661.661,0,0,0-.66.66V16.508a.66.66,0,0,0,1.32,0V.66A.661.661,0,0,0,424,0" transform="translate(430.389 576.028)" fill="#1d1f29"/>
          <path id="Path_234" data-name="Path 234" d="M434.15,0a.661.661,0,0,0-.66.66V16.508a.66.66,0,1,0,1.32,0V.66a.661.661,0,0,0-.66-.66" transform="translate(425.234 576.028)" fill="#1d1f29"/>
          <path id="Path_235" data-name="Path 235" d="M444.3,0a.661.661,0,0,0-.66.66V16.508a.66.66,0,0,0,1.32,0V.66A.661.661,0,0,0,444.3,0" transform="translate(420.078 576.028)" fill="#1d1f29"/>
          <path id="Path_236" data-name="Path 236" d="M454.447,0a.661.661,0,0,0-.66.66V16.508a.66.66,0,1,0,1.32,0V.66a.661.661,0,0,0-.66-.66" transform="translate(414.923 576.028)" fill="#1d1f29"/>
          <path id="Path_237" data-name="Path 237" d="M464.6,0a.661.661,0,0,0-.66.66v25.7a.66.66,0,0,0,1.32,0V.66A.661.661,0,0,0,464.6,0" transform="translate(409.766 566.18)" fill="#1d1f29"/>
          <path id="Path_238" data-name="Path 238" d="M474.747,0a.661.661,0,0,0-.66.66V16.508a.66.66,0,0,0,1.32,0V.66a.661.661,0,0,0-.66-.66" transform="translate(404.611 576.028)" fill="#1d1f29"/>
          <path id="Path_239" data-name="Path 239" d="M484.9,0a.661.661,0,0,0-.66.66V16.508a.66.66,0,0,0,1.32,0V.66A.661.661,0,0,0,484.9,0" transform="translate(399.456 576.028)" fill="#1d1f29"/>
          <path id="Path_240" data-name="Path 240" d="M495.044,0a.661.661,0,0,0-.66.66V16.508a.66.66,0,0,0,1.32,0V.66a.661.661,0,0,0-.66-.66" transform="translate(394.3 576.028)" fill="#1d1f29"/>
          <path id="Path_241" data-name="Path 241" d="M505.192,0a.661.661,0,0,0-.66.66V16.508a.66.66,0,1,0,1.32,0V.66a.661.661,0,0,0-.66-.66" transform="translate(389.145 576.028)" fill="#1d1f29"/>
          <path id="Path_242" data-name="Path 242" d="M525.492,0a.661.661,0,0,0-.66.66V16.508a.66.66,0,0,0,1.32,0V.66a.661.661,0,0,0-.66-.66" transform="translate(378.833 576.028)" fill="#1d1f29"/>
          <path id="Path_243" data-name="Path 243" d="M535.64,0a.661.661,0,0,0-.66.66V16.508a.66.66,0,1,0,1.32,0V.66a.661.661,0,0,0-.66-.66" transform="translate(373.678 576.028)" fill="#1d1f29"/>
          <path id="Path_244" data-name="Path 244" d="M545.789,0a.661.661,0,0,0-.66.66V16.508a.66.66,0,1,0,1.32,0V.66a.661.661,0,0,0-.66-.66" transform="translate(368.522 576.028)" fill="#1d1f29"/>
          <path id="Path_245" data-name="Path 245" d="M555.937,0a.661.661,0,0,0-.66.66V16.508a.66.66,0,1,0,1.32,0V.66a.661.661,0,0,0-.66-.66" transform="translate(363.367 576.028)" fill="#1d1f29"/>
          <path id="Path_246" data-name="Path 246" d="M566.088,0a.661.661,0,0,0-.66.66v25.7a.66.66,0,1,0,1.32,0V.66a.661.661,0,0,0-.66-.66" transform="translate(358.21 566.18)" fill="#1d1f29"/>
          <path id="Path_247" data-name="Path 247" d="M576.237,0a.661.661,0,0,0-.66.66V16.508a.66.66,0,0,0,1.32,0V.66a.661.661,0,0,0-.66-.66" transform="translate(353.055 576.028)" fill="#1d1f29"/>
          <path id="Path_248" data-name="Path 248" d="M586.385,0a.661.661,0,0,0-.66.66V16.508a.66.66,0,1,0,1.32,0V.66a.661.661,0,0,0-.66-.66" transform="translate(347.9 576.028)" fill="#1d1f29"/>
          <path id="Path_249" data-name="Path 249" d="M596.534,0a.661.661,0,0,0-.66.66V16.508a.66.66,0,0,0,1.32,0V.66a.661.661,0,0,0-.66-.66" transform="translate(342.744 576.028)" fill="#1d1f29"/>
          <path id="Path_250" data-name="Path 250" d="M606.682,0a.661.661,0,0,0-.66.66V16.508a.66.66,0,1,0,1.32,0V.66a.661.661,0,0,0-.66-.66" transform="translate(337.589 576.028)" fill="#1d1f29"/>
          <path id="Path_251" data-name="Path 251" d="M626.982,0a.661.661,0,0,0-.66.66V16.508a.66.66,0,0,0,1.32,0V.66a.661.661,0,0,0-.66-.66" transform="translate(327.276 576.028)" fill="#1d1f29"/>
          <path id="Path_252" data-name="Path 252" d="M637.13,0a.661.661,0,0,0-.66.66V16.508a.66.66,0,1,0,1.32,0V.66a.661.661,0,0,0-.66-.66" transform="translate(322.122 576.028)" fill="#1d1f29"/>
          <path id="Path_253" data-name="Path 253" d="M647.279,0a.661.661,0,0,0-.66.66V16.508a.66.66,0,0,0,1.32,0V.66a.661.661,0,0,0-.66-.66" transform="translate(316.966 576.028)" fill="#1d1f29"/>
          <path id="Path_254" data-name="Path 254" d="M657.427,0a.661.661,0,0,0-.66.66V16.508a.66.66,0,1,0,1.32,0V.66a.661.661,0,0,0-.66-.66" transform="translate(311.811 576.028)" fill="#1d1f29"/>
          <path id="Path_255" data-name="Path 255" d="M667.578,0a.661.661,0,0,0-.66.66v25.7a.66.66,0,1,0,1.32,0V.66a.661.661,0,0,0-.66-.66" transform="translate(306.654 566.18)" fill="#1d1f29"/>
          <path id="Path_256" data-name="Path 256" d="M677.727,0a.661.661,0,0,0-.66.66V16.508a.66.66,0,0,0,1.32,0V.66a.661.661,0,0,0-.66-.66" transform="translate(301.498 576.028)" fill="#1d1f29"/>
          <path id="Path_257" data-name="Path 257" d="M687.875,0a.661.661,0,0,0-.66.66V16.508a.66.66,0,1,0,1.32,0V.66a.661.661,0,0,0-.66-.66" transform="translate(296.343 576.028)" fill="#1d1f29"/>
          <path id="Path_258" data-name="Path 258" d="M698.024,0a.661.661,0,0,0-.66.66V16.508a.66.66,0,0,0,1.32,0V.66a.661.661,0,0,0-.66-.66" transform="translate(291.188 576.028)" fill="#1d1f29"/>
          <path id="Path_259" data-name="Path 259" d="M708.172,0a.661.661,0,0,0-.66.66V16.508a.66.66,0,1,0,1.32,0V.66a.661.661,0,0,0-.66-.66" transform="translate(286.033 576.028)" fill="#1d1f29"/>
          <path id="Path_260" data-name="Path 260" d="M728.472,0a.661.661,0,0,0-.66.66V16.508a.66.66,0,0,0,1.32,0V.66a.661.661,0,0,0-.66-.66" transform="translate(275.72 576.028)" fill="#1d1f29"/>
          <path id="Path_261" data-name="Path 261" d="M738.62,0a.661.661,0,0,0-.66.66V16.508a.66.66,0,1,0,1.32,0V.66a.661.661,0,0,0-.66-.66" transform="translate(270.565 576.028)" fill="#1d1f29"/>
          <path id="Path_262" data-name="Path 262" d="M748.769,0a.661.661,0,0,0-.66.66V16.508a.66.66,0,1,0,1.32,0V.66a.661.661,0,0,0-.66-.66" transform="translate(265.41 576.028)" fill="#1d1f29"/>
          <path id="Path_263" data-name="Path 263" d="M758.918,0a.66.66,0,0,0-.66.66V16.508a.66.66,0,0,0,1.32,0V.66a.66.66,0,0,0-.66-.66" transform="translate(260.254 576.028)" fill="#1d1f29"/>
          <path id="Path_264" data-name="Path 264" d="M769.069,0a.661.661,0,0,0-.66.66v25.7a.66.66,0,1,0,1.32,0V.66a.661.661,0,0,0-.66-.66" transform="translate(255.098 566.18)" fill="#1d1f29"/>
          <path id="Path_265" data-name="Path 265" d="M779.217,0a.661.661,0,0,0-.66.66V16.508a.66.66,0,0,0,1.32,0V.66a.661.661,0,0,0-.66-.66" transform="translate(249.942 576.028)" fill="#1d1f29"/>
          <path id="Path_266" data-name="Path 266" d="M789.366,0a.661.661,0,0,0-.66.66V16.508a.66.66,0,0,0,1.32,0V.66a.661.661,0,0,0-.66-.66" transform="translate(244.787 576.028)" fill="#1d1f29"/>
          <path id="Path_267" data-name="Path 267" d="M799.514,0a.661.661,0,0,0-.66.66V16.508a.66.66,0,0,0,1.32,0V.66a.661.661,0,0,0-.66-.66" transform="translate(239.632 576.028)" fill="#1d1f29"/>
          <path id="Path_268" data-name="Path 268" d="M809.663,0a.66.66,0,0,0-.66.66V16.508a.66.66,0,0,0,1.32,0V.66a.66.66,0,0,0-.66-.66" transform="translate(234.476 576.028)" fill="#1d1f29"/>
          <path id="Path_269" data-name="Path 269" d="M829.962,0a.661.661,0,0,0-.66.66V16.508a.66.66,0,0,0,1.32,0V.66a.661.661,0,0,0-.66-.66" transform="translate(224.164 576.028)" fill="#1d1f29"/>
          <path id="Path_270" data-name="Path 270" d="M840.111,0a.661.661,0,0,0-.66.66V16.508a.66.66,0,0,0,1.32,0V.66a.661.661,0,0,0-.66-.66" transform="translate(219.009 576.028)" fill="#1d1f29"/>
          <path id="Path_271" data-name="Path 271" d="M850.259,0a.661.661,0,0,0-.66.66V16.508a.66.66,0,0,0,1.32,0V.66a.661.661,0,0,0-.66-.66" transform="translate(213.854 576.028)" fill="#1d1f29"/>
          <path id="Path_272" data-name="Path 272" d="M860.408,0a.661.661,0,0,0-.66.66V16.508a.66.66,0,0,0,1.32,0V.66a.661.661,0,0,0-.66-.66" transform="translate(208.698 576.028)" fill="#1d1f29"/>
          <path id="Path_273" data-name="Path 273" d="M870.559,0a.661.661,0,0,0-.66.66v25.7a.66.66,0,0,0,1.32,0V.66a.661.661,0,0,0-.66-.66" transform="translate(203.541 566.18)" fill="#1d1f29"/>
          <path id="Path_274" data-name="Path 274" d="M880.707,0a.661.661,0,0,0-.66.66V16.508a.66.66,0,0,0,1.32,0V.66a.661.661,0,0,0-.66-.66" transform="translate(198.386 576.028)" fill="#1d1f29"/>
          <path id="Path_275" data-name="Path 275" d="M890.856,0a.661.661,0,0,0-.66.66V16.508a.66.66,0,0,0,1.32,0V.66a.661.661,0,0,0-.66-.66" transform="translate(193.231 576.028)" fill="#1d1f29"/>
          <path id="Path_276" data-name="Path 276" d="M901,0a.661.661,0,0,0-.66.66V16.508a.66.66,0,1,0,1.32,0V.66A.661.661,0,0,0,901,0" transform="translate(188.076 576.028)" fill="#1d1f29"/>
          <path id="Path_277" data-name="Path 277" d="M911.153,0a.661.661,0,0,0-.66.66V16.508a.66.66,0,0,0,1.32,0V.66a.661.661,0,0,0-.66-.66" transform="translate(182.92 576.028)" fill="#1d1f29"/>
          <path id="Path_278" data-name="Path 278" d="M931.452,0a.661.661,0,0,0-.66.66V16.508a.66.66,0,1,0,1.32,0V.66a.661.661,0,0,0-.66-.66" transform="translate(172.608 576.028)" fill="#1d1f29"/>
          <path id="Path_279" data-name="Path 279" d="M941.6,0a.661.661,0,0,0-.66.66V16.508a.66.66,0,1,0,1.32,0V.66A.661.661,0,0,0,941.6,0" transform="translate(167.453 576.028)" fill="#1d1f29"/>
          <path id="Path_280" data-name="Path 280" d="M951.749,0a.661.661,0,0,0-.66.66V16.508a.66.66,0,1,0,1.32,0V.66a.661.661,0,0,0-.66-.66" transform="translate(162.298 576.028)" fill="#1d1f29"/>
          <path id="Path_281" data-name="Path 281" d="M961.9,0a.661.661,0,0,0-.66.66V16.508a.66.66,0,1,0,1.32,0V.66A.661.661,0,0,0,961.9,0" transform="translate(157.142 576.028)" fill="#1d1f29"/>
          <path id="Path_282" data-name="Path 282" d="M972.049,0a.661.661,0,0,0-.66.66v25.7a.66.66,0,0,0,1.32,0V.66a.661.661,0,0,0-.66-.66" transform="translate(151.985 566.18)" fill="#1d1f29"/>
          <path id="Path_283" data-name="Path 283" d="M982.2,0a.661.661,0,0,0-.66.66V16.508a.66.66,0,0,0,1.32,0V.66A.661.661,0,0,0,982.2,0" transform="translate(146.83 576.028)" fill="#1d1f29"/>
          <path id="Path_284" data-name="Path 284" d="M992.346,0a.661.661,0,0,0-.66.66V16.508a.66.66,0,0,0,1.32,0V.66a.661.661,0,0,0-.66-.66" transform="translate(141.675 576.028)" fill="#1d1f29"/>
          <path id="Path_285" data-name="Path 285" d="M1002.49,0a.661.661,0,0,0-.66.66V16.508a.66.66,0,1,0,1.32,0V.66a.661.661,0,0,0-.66-.66" transform="translate(136.52 576.028)" fill="#1d1f29"/>
          <path id="Path_286" data-name="Path 286" d="M1012.64,0a.661.661,0,0,0-.66.66V16.508a.66.66,0,1,0,1.32,0V.66a.661.661,0,0,0-.66-.66" transform="translate(131.364 576.028)" fill="#1d1f29"/>
          <path id="Path_287" data-name="Path 287" d="M1032.94,0a.661.661,0,0,0-.66.66V16.508a.66.66,0,0,0,1.32,0V.66a.661.661,0,0,0-.66-.66" transform="translate(121.052 576.028)" fill="#1d1f29"/>
          <path id="Path_288" data-name="Path 288" d="M1043.09,0a.661.661,0,0,0-.66.66V16.508a.66.66,0,1,0,1.319,0V.66a.66.66,0,0,0-.659-.66" transform="translate(115.897 576.028)" fill="#1d1f29"/>
          <path id="Path_289" data-name="Path 289" d="M1053.24,0a.661.661,0,0,0-.66.66V16.508a.66.66,0,0,0,1.32,0V.66a.661.661,0,0,0-.66-.66" transform="translate(110.742 576.028)" fill="#1d1f29"/>
          <path id="Path_290" data-name="Path 290" d="M1063.39,0a.662.662,0,0,0-.66.66V16.508a.66.66,0,0,0,1.32,0V.66a.661.661,0,0,0-.66-.66" transform="translate(105.585 576.028)" fill="#1d1f29"/>
          <path id="Path_291" data-name="Path 291" d="M1073.54,0a.662.662,0,0,0-.66.66v25.7a.66.66,0,0,0,1.32,0V.66a.661.661,0,0,0-.66-.66" transform="translate(100.431 566.18)" fill="#1d1f29"/>
          <path id="Path_292" data-name="Path 292" d="M1083.69,0a.661.661,0,0,0-.66.66V16.508a.66.66,0,0,0,1.32,0V.66a.662.662,0,0,0-.66-.66" transform="translate(95.274 576.028)" fill="#1d1f29"/>
          <path id="Path_293" data-name="Path 293" d="M1093.83,0a.661.661,0,0,0-.66.66V16.508a.66.66,0,0,0,1.32,0V.66a.661.661,0,0,0-.66-.66" transform="translate(90.12 576.028)" fill="#1d1f29"/>
          <path id="Path_294" data-name="Path 294" d="M1103.98,0a.662.662,0,0,0-.66.66V16.508a.66.66,0,1,0,1.32,0V.66a.661.661,0,0,0-.66-.66" transform="translate(84.964 576.028)" fill="#1d1f29"/>
          <path id="Path_295" data-name="Path 295" d="M1114.14,0a.662.662,0,0,0-.66.66V16.508a.66.66,0,0,0,1.32,0V.66a.661.661,0,0,0-.66-.66" transform="translate(79.807 576.028)" fill="#1d1f29"/>
          <path id="Path_296" data-name="Path 296" d="M1134.43,0a.662.662,0,0,0-.66.66V16.508a.66.66,0,1,0,1.32,0V.66a.661.661,0,0,0-.66-.66" transform="translate(69.496 576.028)" fill="#1d1f29"/>
          <path id="Path_297" data-name="Path 297" d="M1144.58,0a.661.661,0,0,0-.66.66V16.508a.66.66,0,0,0,1.32,0V.66a.662.662,0,0,0-.66-.66" transform="translate(64.342 576.028)" fill="#1d1f29"/>
          <path id="Path_298" data-name="Path 298" d="M1154.73,0a.661.661,0,0,0-.66.66V16.508a.66.66,0,0,0,1.32,0V.66a.662.662,0,0,0-.66-.66" transform="translate(59.186 576.028)" fill="#1d1f29"/>
          <path id="Path_299" data-name="Path 299" d="M1164.88,0a.662.662,0,0,0-.661.66V16.508a.661.661,0,0,0,1.321,0V.66a.662.662,0,0,0-.66-.66" transform="translate(54.029 576.028)" fill="#1d1f29"/>
          <path id="Path_300" data-name="Path 300" d="M1175.03,0a.662.662,0,0,0-.66.66v25.7a.66.66,0,0,0,1.32,0V.66a.661.661,0,0,0-.66-.66" transform="translate(48.875 566.18)" fill="#1d1f29"/>
          <path id="Path_301" data-name="Path 301" d="M1185.18,0a.661.661,0,0,0-.661.66V16.508a.661.661,0,1,0,1.321,0V.66a.662.662,0,0,0-.66-.66" transform="translate(43.718 576.028)" fill="#1d1f29"/>
          <path id="Path_302" data-name="Path 302" d="M1195.32,0a.661.661,0,0,0-.66.66V16.508a.66.66,0,0,0,1.32,0V.66a.662.662,0,0,0-.66-.66" transform="translate(38.564 576.028)" fill="#1d1f29"/>
          <path id="Path_303" data-name="Path 303" d="M1205.47,0a.661.661,0,0,0-.66.66V16.508a.66.66,0,1,0,1.32,0V.66a.661.661,0,0,0-.66-.66" transform="translate(33.407 576.028)" fill="#1d1f29"/>
          <path id="Path_304" data-name="Path 304" d="M1215.63,0a.662.662,0,0,0-.661.66V16.508a.66.66,0,0,0,1.32,0V.66a.661.661,0,0,0-.659-.66" transform="translate(28.251 576.028)" fill="#1d1f29"/>
          <path id="Path_305" data-name="Path 305" d="M1235.92,0a.661.661,0,0,0-.661.66V16.508a.66.66,0,0,0,1.32,0V.66a.661.661,0,0,0-.66-.66" transform="translate(17.94 576.028)" fill="#1d1f29"/>
          <path id="Path_306" data-name="Path 306" d="M1246.07,0a.661.661,0,0,0-.66.66V16.508a.66.66,0,0,0,1.32,0V.66a.662.662,0,0,0-.66-.66" transform="translate(12.786 576.028)" fill="#1d1f29"/>
          <path id="Path_307" data-name="Path 307" d="M1256.22,0a.661.661,0,0,0-.661.66V16.508a.66.66,0,0,0,1.32,0V.66a.661.661,0,0,0-.66-.66" transform="translate(7.629 576.028)" fill="#1d1f29"/>
          <path id="Path_308" data-name="Path 308" d="M1266.37,0a.662.662,0,0,0-.66.66V16.508a.66.66,0,0,0,1.32,0V.66a.662.662,0,0,0-.66-.66" transform="translate(2.472 576.028)" fill="#1d1f29"/>
          <path id="Path_309" data-name="Path 309" d="M1276.52,0a.662.662,0,0,0-.66.66v25.7a.66.66,0,0,0,1.32,0V.66a.661.661,0,0,0-.66-.66" transform="translate(-2.681 566.18)" fill="#1d1f29"/>
          <path id="Path_310" data-name="Path 310" d="M1286.67,0a.662.662,0,0,0-.661.66V16.508a.66.66,0,0,0,1.32,0V.66a.661.661,0,0,0-.659-.66" transform="translate(-7.838 576.028)" fill="#1d1f29"/>
          <path id="Path_311" data-name="Path 311" d="M1296.81,0a.661.661,0,0,0-.66.66V16.508a.66.66,0,1,0,1.32,0V.66a.662.662,0,0,0-.66-.66" transform="translate(-12.992 576.028)" fill="#1d1f29"/>
          <path id="Path_312" data-name="Path 312" d="M1306.96,0a.662.662,0,0,0-.661.66V16.508a.66.66,0,0,0,1.32,0V.66a.661.661,0,0,0-.66-.66" transform="translate(-18.149 576.028)" fill="#1d1f29"/>
          <path id="Path_313" data-name="Path 313" d="M1317.12,0a.662.662,0,0,0-.66.66V16.508a.66.66,0,0,0,1.32,0V.66a.661.661,0,0,0-.66-.66" transform="translate(-23.306 576.028)" fill="#1d1f29"/>
          <path id="Path_314" data-name="Path 314" d="M1337.41,0a.661.661,0,0,0-.66.66V16.508a.66.66,0,1,0,1.32,0V.66a.662.662,0,0,0-.66-.66" transform="translate(-33.616 576.028)" fill="#1d1f29"/>
          <path id="Path_315" data-name="Path 315" d="M1347.56,0a.661.661,0,0,0-.66.66V16.508a.66.66,0,0,0,1.32,0V.66a.662.662,0,0,0-.66-.66" transform="translate(-38.771 576.028)" fill="#1d1f29"/>
          <path id="Path_316" data-name="Path 316" d="M1357.71,0a.662.662,0,0,0-.661.66V16.508a.66.66,0,0,0,1.32,0V.66a.661.661,0,0,0-.66-.66" transform="translate(-43.927 576.028)" fill="#1d1f29"/>
          <path id="Path_317" data-name="Path 317" d="M1367.86,0a.661.661,0,0,0-.66.66V16.508a.66.66,0,0,0,1.32,0V.66a.662.662,0,0,0-.66-.66" transform="translate(-49.084 576.028)" fill="#1d1f29"/>
          <path id="Path_318" data-name="Path 318" d="M1378.01,0a.662.662,0,0,0-.661.66v25.7a.66.66,0,0,0,1.32,0V.66a.661.661,0,0,0-.66-.66" transform="translate(-54.237 566.18)" fill="#1d1f29"/>
          <path id="Path_319" data-name="Path 319" d="M1388.16,0a.662.662,0,0,0-.66.66V16.508a.66.66,0,0,0,1.32,0V.66a.661.661,0,0,0-.66-.66" transform="translate(-59.394 576.028)" fill="#1d1f29"/>
          <path id="Path_320" data-name="Path 320" d="M1398.3,0a.662.662,0,0,0-.66.66V16.508a.66.66,0,1,0,1.32,0V.66a.662.662,0,0,0-.66-.66" transform="translate(-64.549 576.028)" fill="#1d1f29"/>
          <path id="Path_321" data-name="Path 321" d="M1408.45,0a.661.661,0,0,0-.66.66V16.508a.66.66,0,1,0,1.32,0V.66a.661.661,0,0,0-.66-.66" transform="translate(-69.705 576.028)" fill="#1d1f29"/>
          <path id="Path_322" data-name="Path 322" d="M1418.61,0a.662.662,0,0,0-.66.66V16.508a.66.66,0,0,0,1.32,0V.66a.661.661,0,0,0-.66-.66" transform="translate(-74.862 576.028)" fill="#1d1f29"/>
          <path id="Path_323" data-name="Path 323" d="M1438.9,0a.661.661,0,0,0-.66.66V16.508a.66.66,0,1,0,1.32,0V.66a.662.662,0,0,0-.66-.66" transform="translate(-85.172 576.028)" fill="#1d1f29"/>
          <path id="Path_324" data-name="Path 324" d="M1449.05,0a.661.661,0,0,0-.66.66V16.508a.66.66,0,0,0,1.32,0V.66a.662.662,0,0,0-.66-.66" transform="translate(-90.326 576.028)" fill="#1d1f29"/>
          <path id="Path_325" data-name="Path 325" d="M1459.2,0a.662.662,0,0,0-.66.66V16.508a.66.66,0,0,0,1.32,0V.66a.661.661,0,0,0-.66-.66" transform="translate(-95.483 576.028)" fill="#1d1f29"/>
          <path id="Path_326" data-name="Path 326" d="M1469.35,0a.661.661,0,0,0-.66.66V16.508a.66.66,0,1,0,1.32,0V.66a.662.662,0,0,0-.66-.66" transform="translate(-100.64 576.028)" fill="#1d1f29"/>
          <path id="Path_327" data-name="Path 327" d="M1479.5,0a.662.662,0,0,0-.66.66v25.7a.66.66,0,0,0,1.32,0V.66a.662.662,0,0,0-.66-.66" transform="translate(-105.794 566.18)" fill="#1d1f29"/>
          <path id="Path_328" data-name="Path 328" d="M1489.65,0a.662.662,0,0,0-.66.66V16.508a.66.66,0,0,0,1.32,0V.66a.661.661,0,0,0-.66-.66" transform="translate(-110.951 576.028)" fill="#1d1f29"/>
          <path id="Path_329" data-name="Path 329" d="M1499.79,0a.661.661,0,0,0-.66.66V16.508a.66.66,0,0,0,1.32,0V.66a.662.662,0,0,0-.66-.66" transform="translate(-116.105 576.028)" fill="#1d1f29"/>
          <path id="Path_330" data-name="Path 330" d="M1509.94,0a.661.661,0,0,0-.66.66V16.508a.66.66,0,1,0,1.32,0V.66a.661.661,0,0,0-.66-.66" transform="translate(-121.261 576.028)" fill="#1d1f29"/>
          <path id="Path_331" data-name="Path 331" d="M1520.1,0a.662.662,0,0,0-.66.66V16.508a.66.66,0,0,0,1.32,0V.66a.662.662,0,0,0-.66-.66" transform="translate(-126.418 576.028)" fill="#1d1f29"/>
          <path id="Path_332" data-name="Path 332" d="M1540.39,0a.661.661,0,0,0-.66.66V16.508a.66.66,0,1,0,1.32,0V.66a.662.662,0,0,0-.66-.66" transform="translate(-136.729 576.028)" fill="#1d1f29"/>
          <path id="Path_333" data-name="Path 333" d="M1550.54,0a.661.661,0,0,0-.66.66V16.508a.66.66,0,0,0,1.32,0V.66a.662.662,0,0,0-.66-.66" transform="translate(-141.883 576.028)" fill="#1d1f29"/>
          <path id="Path_334" data-name="Path 334" d="M1560.69,0a.662.662,0,0,0-.66.66V16.508a.66.66,0,0,0,1.32,0V.66a.661.661,0,0,0-.66-.66" transform="translate(-147.039 576.028)" fill="#1d1f29"/>
          <path id="Path_335" data-name="Path 335" d="M1570.84,0a.662.662,0,0,0-.66.66V16.508a.66.66,0,0,0,1.32,0V.66a.661.661,0,0,0-.66-.66" transform="translate(-152.196 576.028)" fill="#1d1f29"/>
          <path id="Path_336" data-name="Path 336" d="M1580.99,0a.662.662,0,0,0-.66.66v25.7a.66.66,0,0,0,1.32,0V.66a.662.662,0,0,0-.66-.66" transform="translate(-157.35 566.18)" fill="#1d1f29"/>
          <path id="Path_337" data-name="Path 337" d="M1591.14,0a.661.661,0,0,0-.66.66V16.508a.66.66,0,0,0,1.32,0V.66a.661.661,0,0,0-.66-.66" transform="translate(-162.507 576.028)" fill="#1d1f29"/>
          <path id="Path_338" data-name="Path 338" d="M1601.28,0a.661.661,0,0,0-.66.66V16.508a.66.66,0,1,0,1.32,0V.66a.662.662,0,0,0-.66-.66" transform="translate(-167.661 576.028)" fill="#1d1f29"/>
          <path id="Path_339" data-name="Path 339" d="M1611.44,0a.661.661,0,0,0-.66.66V16.508a.66.66,0,0,0,1.32,0V.66a.661.661,0,0,0-.66-.66" transform="translate(-172.817 576.028)" fill="#1d1f29"/>
          <path id="Path_340" data-name="Path 340" d="M1621.59,0a.662.662,0,0,0-.66.66V16.508a.66.66,0,0,0,1.32,0V.66a.662.662,0,0,0-.66-.66" transform="translate(-177.974 576.028)" fill="#1d1f29"/>
          <path id="Path_341" data-name="Path 341" d="M1641.88,0a.661.661,0,0,0-.66.66V16.508a.66.66,0,1,0,1.32,0V.66a.661.661,0,0,0-.66-.66" transform="translate(-189.263 576.028)" fill="#1d1f29"/>
          <path id="Path_342" data-name="Path 342" d="M1652.03,0a.661.661,0,0,0-.66.66V16.508a.66.66,0,0,0,1.32,0V.66a.662.662,0,0,0-.66-.66" transform="translate(-194.392 576.028)" fill="#1d1f29"/>
          <path id="Path_343" data-name="Path 343" d="M1662.18,0a.662.662,0,0,0-.66.66V16.508a.66.66,0,0,0,1.32,0V.66a.661.661,0,0,0-.66-.66" transform="translate(-199.524 576.028)" fill="#1d1f29"/>
          <path id="Path_344" data-name="Path 344" d="M1672.33,0a.662.662,0,0,0-.66.66V16.508a.66.66,0,1,0,1.32,0V.66a.661.661,0,0,0-.66-.66" transform="translate(-204.655 576.028)" fill="#1d1f29"/>
          <path id="Path_345" data-name="Path 345" d="M1682.48,0a.662.662,0,0,0-.66.66v25.7a.66.66,0,0,0,1.32,0V.66a.662.662,0,0,0-.66-.66" transform="translate(-209.784 566.18)" fill="#1d1f29"/>
          <path id="Path_346" data-name="Path 346" d="M1692.63,0a.661.661,0,0,0-.66.66V16.508a.66.66,0,0,0,1.32,0V.66a.662.662,0,0,0-.66-.66" transform="translate(-214.916 576.028)" fill="#1d1f29"/>
          <path id="Path_347" data-name="Path 347" d="M1702.77,0a.661.661,0,0,0-.66.66V16.508a.66.66,0,0,0,1.32,0V.66a.662.662,0,0,0-.66-.66" transform="translate(-220.045 576.028)" fill="#1d1f29"/>
          <path id="Path_348" data-name="Path 348" d="M1712.93,0a.662.662,0,0,0-.66.66V16.508a.66.66,0,0,0,1.32,0V.66a.661.661,0,0,0-.66-.66" transform="translate(-225.176 576.028)" fill="#1d1f29"/>
          <path id="Path_349" data-name="Path 349" d="M1723.08,0a.662.662,0,0,0-.66.66V16.508a.66.66,0,0,0,1.32,0V.66a.662.662,0,0,0-.66-.66" transform="translate(-230.308 576.028)" fill="#1d1f29"/>
          <path id="Path_350" data-name="Path 350" d="M1743.37,0a.662.662,0,0,0-.66.66V16.508a.66.66,0,0,0,1.32,0V.66a.661.661,0,0,0-.66-.66" transform="translate(-240.568 576.028)" fill="#1d1f29"/>
          <path id="Path_351" data-name="Path 351" d="M1753.52,0a.661.661,0,0,0-.66.66V16.508a.66.66,0,0,0,1.32,0V.66a.662.662,0,0,0-.66-.66" transform="translate(-245.697 576.028)" fill="#1d1f29"/>
          <path id="Path_352" data-name="Path 352" d="M1763.67,0a.661.661,0,0,0-.66.66V16.508a.66.66,0,0,0,1.32,0V.66a.661.661,0,0,0-.66-.66" transform="translate(-250.829 576.028)" fill="#1d1f29"/>
          <path id="Path_353" data-name="Path 353" d="M1773.82,0a.662.662,0,0,0-.66.66V16.508a.66.66,0,0,0,1.32,0V.66a.661.661,0,0,0-.66-.66" transform="translate(-255.96 576.028)" fill="#1d1f29"/>
          <path id="Path_354" data-name="Path 354" d="M1783.97,0a.661.661,0,0,0-.66.66v25.7a.66.66,0,0,0,1.32,0V.66a.662.662,0,0,0-.66-.66" transform="translate(-261.09 566.18)" fill="#1d1f29"/>
          <path id="Path_355" data-name="Path 355" d="M1794.12,0a.661.661,0,0,0-.66.66V16.508a.66.66,0,0,0,1.32,0V.66a.662.662,0,0,0-.66-.66" transform="translate(-266.221 576.028)" fill="#1d1f29"/>
          <path id="Path_356" data-name="Path 356" d="M1804.26,0a.661.661,0,0,0-.66.66V16.508a.66.66,0,1,0,1.32,0V.66a.662.662,0,0,0-.66-.66" transform="translate(-271.35 576.028)" fill="#1d1f29"/>
          <path id="Path_357" data-name="Path 357" d="M1814.42,0a.662.662,0,0,0-.66.66V16.508a.66.66,0,0,0,1.32,0V.66a.661.661,0,0,0-.66-.66" transform="translate(-276.481 576.028)" fill="#1d1f29"/>
          <path id="Path_358" data-name="Path 358" d="M1824.57,0a.661.661,0,0,0-.66.66V16.508a.66.66,0,0,0,1.32,0V.66a.662.662,0,0,0-.66-.66" transform="translate(-281.613 576.028)" fill="#1d1f29"/>
          <path id="Path_359" data-name="Path 359" d="M1844.86,0a.662.662,0,0,0-.66.66V16.508a.66.66,0,1,0,1.32,0V.66a.661.661,0,0,0-.66-.66" transform="translate(-291.873 576.028)" fill="#1d1f29"/>
          <path id="Path_360" data-name="Path 360" d="M1855.01,0a.661.661,0,0,0-.66.66V16.508a.66.66,0,0,0,1.32,0V.66a.662.662,0,0,0-.66-.66" transform="translate(-297.003 576.028)" fill="#1d1f29"/>
          <path id="Path_361" data-name="Path 361" d="M1865.16,0a.661.661,0,0,0-.66.66V16.508a.66.66,0,0,0,1.32,0V.66a.661.661,0,0,0-.66-.66" transform="translate(-302.134 576.028)" fill="#1d1f29"/>
          <path id="Path_362" data-name="Path 362" d="M1875.31,0a.662.662,0,0,0-.66.66V16.508a.66.66,0,0,0,1.32,0V.66a.661.661,0,0,0-.66-.66" transform="translate(-307.265 576.028)" fill="#1d1f29"/>
          <path id="Path_363" data-name="Path 363" d="M1885.46,0a.662.662,0,0,0-.66.66v25.7a.66.66,0,0,0,1.32,0V.66a.661.661,0,0,0-.66-.66" transform="translate(-312.395 566.18)" fill="#1d1f29"/>
          <path id="Path_364" data-name="Path 364" d="M1895.61,0a.661.661,0,0,0-.66.66V16.508a.66.66,0,0,0,1.32,0V.66a.662.662,0,0,0-.66-.66" transform="translate(-317.526 576.028)" fill="#1d1f29"/>
          <path id="Path_365" data-name="Path 365" d="M1905.76,0a.661.661,0,0,0-.661.66V16.508a.661.661,0,1,0,1.321,0V.66a.662.662,0,0,0-.66-.66" transform="translate(-322.655 576.028)" fill="#1d1f29"/>
          <path id="Path_366" data-name="Path 366" d="M1915.91,0a.662.662,0,0,0-.66.66V16.508a.66.66,0,0,0,1.32,0V.66a.661.661,0,0,0-.66-.66" transform="translate(-327.786 576.028)" fill="#1d1f29"/>
          <path id="Path_367" data-name="Path 367" d="M1926.06,0a.662.662,0,0,0-.66.66V16.508a.66.66,0,0,0,1.32,0V.66a.661.661,0,0,0-.66-.66" transform="translate(-332.918 576.028)" fill="#1d1f29"/>
          <path id="Path_368" data-name="Path 368" d="M1946.35,0a.662.662,0,0,0-.66.66V16.508a.66.66,0,0,0,1.32,0V.66a.661.661,0,0,0-.66-.66" transform="translate(-343.179 576.028)" fill="#1d1f29"/>
          <path id="Path_369" data-name="Path 369" d="M1956.5,0a.661.661,0,0,0-.661.66V16.508a.661.661,0,0,0,1.321,0V.66a.662.662,0,0,0-.66-.66" transform="translate(-348.308 576.028)" fill="#1d1f29"/>
          <path id="Path_370" data-name="Path 370" d="M1966.65,0a.661.661,0,0,0-.66.66V16.508a.66.66,0,0,0,1.32,0V.66a.661.661,0,0,0-.66-.66" transform="translate(-353.439 576.028)" fill="#1d1f29"/>
          <path id="Path_371" data-name="Path 371" d="M1976.8,0a.662.662,0,0,0-.66.66V16.508a.66.66,0,1,0,1.32,0V.66a.662.662,0,0,0-.66-.66" transform="translate(-358.571 576.028)" fill="#1d1f29"/>
          <path id="Path_372" data-name="Path 372" d="M1986.95,0a.662.662,0,0,0-.66.66v25.7a.66.66,0,0,0,1.32,0V.66a.661.661,0,0,0-.66-.66" transform="translate(-363.7 566.18)" fill="#1d1f29"/>
          <path id="Path_373" data-name="Path 373" d="M1997.1,0a.662.662,0,0,0-.66.66V16.508a.66.66,0,0,0,1.32,0V.66a.661.661,0,0,0-.66-.66" transform="translate(-368.831 576.028)" fill="#1d1f29"/>
          <path id="Path_374" data-name="Path 374" d="M2007.24,0a.661.661,0,0,0-.66.66V16.508a.66.66,0,1,0,1.32,0V.66a.662.662,0,0,0-.66-.66" transform="translate(-373.961 576.028)" fill="#1d1f29"/>
          <path id="Path_375" data-name="Path 375" d="M2017.4,0a.662.662,0,0,0-.66.66V16.508a.66.66,0,0,0,1.32,0V.66a.661.661,0,0,0-.66-.66" transform="translate(-379.092 576.028)" fill="#1d1f29"/>
          <path id="Path_376" data-name="Path 376" d="M2027.55,0a.662.662,0,0,0-.66.66V16.508a.66.66,0,0,0,1.32,0V.66a.661.661,0,0,0-.66-.66" transform="translate(-384.223 576.028)" fill="#1d1f29"/>
          <path id="Path_377" data-name="Path 377" d="M0,85.753C0,82.926,1.4,81.1,4.224,81.1c2.852,0,4.25,1.821,4.25,4.648v9.528c0,2.824-1.4,4.674-4.25,4.674C1.4,99.955,0,98.106,0,95.281Zm2.033,9.66c0,1.664.713,2.667,2.191,2.667,1.505,0,2.191-1,2.191-2.667V85.647c0-1.69-.686-2.693-2.191-2.693-1.478,0-2.191,1-2.191,2.693Z" transform="translate(649.166 450.9)" fill="#1d1f29"/>
          <path id="Path_378" data-name="Path 378" d="M108.18,84.833a5.564,5.564,0,0,1-2.561.792V83.936a3.165,3.165,0,0,0,3.169-2.456h1.425V99.959H108.18Z" transform="translate(592.032 450.71)" fill="#1d1f29"/>
          <path id="Path_379" data-name="Path 379" d="M211.658,85.779c0,5.569-6.257,7.576-6.282,11.827V97.9h6.072V99.77h-8.1V98.186c0-5.966,6.256-7.127,6.256-12.329,0-1.9-.633-2.9-2.165-2.9-1.5,0-2.164,1.081-2.164,2.719v1.635h-1.926V85.8c0-2.824,1.294-4.7,4.144-4.7,2.877,0,4.171,1.849,4.171,4.674" transform="translate(542.631 450.9)" fill="#1d1f29"/>
          <path id="Path_380" data-name="Path 380" d="M312.928,85.753v.474c0,1.9-.766,3.248-2.244,3.8,1.558.58,2.244,1.978,2.244,3.828v1.424c0,2.824-1.321,4.674-4.171,4.674-2.824,0-4.145-1.849-4.145-4.674V94.015h1.927v1.4c0,1.664.686,2.667,2.167,2.667,1.5,0,2.164-.978,2.164-2.85V93.8c0-1.821-.766-2.693-2.324-2.744h-1.11V89.21h1.215a2.218,2.218,0,0,0,2.218-2.533v-.846c0-1.9-.66-2.876-2.164-2.876-1.48,0-2.167,1.029-2.167,2.693V86.6h-1.927v-.844c0-2.827,1.32-4.648,4.145-4.648,2.85,0,4.171,1.821,4.171,4.648" transform="translate(491.438 450.9)" fill="#1d1f29"/>
          <path id="Path_381" data-name="Path 381" d="M412.973,96.237v3.722h-2.007V96.237H405V94.362l5.729-12.882h2.244V94.362h1.478v1.875ZM406.9,94.362h4.065V85.333Z" transform="translate(439.698 450.71)" fill="#1d1f29"/>
          <path id="Path_382" data-name="Path 382" d="M509.774,89a2.976,2.976,0,0,1,2.746-1.532c2.376,0,3.432,1.744,3.432,4.382v3.617c0,2.824-1.346,4.674-4.171,4.674s-4.145-1.849-4.145-4.674V94.23h1.928V95.6c0,1.663.686,2.667,2.164,2.667s2.164-1,2.164-2.667V92.011c0-1.661-.686-2.664-2.164-2.664a1.99,1.99,0,0,0-2.085,1.978v.423h-1.927l.5-10.268H515.5v1.847h-5.439Z" transform="translate(387.56 450.71)" fill="#1d1f29"/>
          <path id="Path_383" data-name="Path 383" d="M617.383,85.724v.343h-1.927v-.475c0-1.663-.686-2.639-2.193-2.639-1.558,0-2.244,1-2.244,2.982V90.08A2.98,2.98,0,0,1,614,88.1c2.376,0,3.431,1.718,3.431,4.382v2.8c0,2.824-1.4,4.674-4.222,4.674-2.853,0-4.251-1.849-4.251-4.674V85.856c0-2.93,1.321-4.751,4.251-4.751,2.85,0,4.171,1.8,4.171,4.619m-6.364,6.918v2.77c0,1.664.686,2.667,2.193,2.667,1.478,0,2.19-1,2.19-2.667v-2.77c0-1.664-.712-2.667-2.19-2.667-1.506,0-2.193,1-2.193,2.667" transform="translate(336.085 450.9)" fill="#1d1f29"/>
          <path id="Path_384" data-name="Path 384" d="M716.782,83.327H710.5V81.48h8.368v1.8l-4.751,16.683h-2.059Z" transform="translate(284.503 450.71)" fill="#1d1f29"/>
          <path id="Path_385" data-name="Path 385" d="M820.351,85.673v.58c0,1.876-.661,3.248-2.113,3.8,1.532.606,2.113,2.058,2.113,3.9v1.375c0,2.851-1.479,4.62-4.357,4.62s-4.354-1.769-4.354-4.62V93.961c0-1.873.58-3.273,2.138-3.9-1.506-.581-2.138-1.927-2.138-3.8v-.58c0-2.85,1.5-4.568,4.354-4.568s4.357,1.718,4.357,4.568m-6.678.051v.9c0,1.795.869,2.587,2.322,2.587s2.324-.792,2.324-2.587v-.9c0-1.9-.872-2.77-2.324-2.77s-2.322.869-2.322,2.77m0,8V95.29c0,1.9.844,2.8,2.322,2.8s2.3-.9,2.324-2.8V93.723c0-1.795-.792-2.665-2.324-2.665s-2.322.87-2.322,2.665" transform="translate(233.122 450.9)" fill="#1d1f29"/>
          <path id="Path_386" data-name="Path 386" d="M921.782,85.753v9.422c0,2.93-1.321,4.78-4.277,4.78-2.824,0-4.171-1.823-4.171-4.648v-.343h1.927v.477c0,1.661.712,2.639,2.19,2.639,1.584,0,2.27-1,2.27-2.956V90.979a2.952,2.952,0,0,1-2.982,1.952c-2.375,0-3.433-1.689-3.433-4.354V85.753c0-2.827,1.375-4.648,4.225-4.648s4.251,1.821,4.251,4.648m-6.441-.106v2.77c0,1.664.712,2.667,2.19,2.667,1.5,0,2.189-1,2.189-2.667v-2.77c0-1.689-.686-2.667-2.189-2.667-1.478,0-2.19.978-2.19,2.667" transform="translate(181.475 450.9)" fill="#1d1f29"/>
          <path id="Path_387" data-name="Path 387" d="M1011.16,84.833a5.563,5.563,0,0,1-2.561.792V83.936a3.167,3.167,0,0,0,3.17-2.456h1.424V99.959h-2.032Z" transform="translate(133.078 450.71)" fill="#1d1f29"/>
          <path id="Path_388" data-name="Path 388" d="M1023.87,85.753c0-2.827,1.4-4.648,4.225-4.648,2.851,0,4.249,1.821,4.249,4.648v9.528c0,2.824-1.4,4.674-4.249,4.674-2.824,0-4.225-1.849-4.225-4.674Zm2.033,9.66c0,1.664.714,2.667,2.192,2.667,1.5,0,2.19-1,2.19-2.667V85.647c0-1.69-.686-2.693-2.19-2.693-1.478,0-2.192,1-2.192,2.693Z" transform="translate(125.306 450.9)" fill="#1d1f29"/>
          <path id="Path_389" data-name="Path 389" d="M1114,84.833a5.564,5.564,0,0,1-2.561.792V83.936a3.168,3.168,0,0,0,3.17-2.456h1.423V99.959H1114Z" transform="translate(80.831 450.71)" fill="#1d1f29"/>
          <path id="Path_390" data-name="Path 390" d="M1132.06,84.833a5.565,5.565,0,0,1-2.562.792V83.936a3.168,3.168,0,0,0,3.17-2.456h1.424V99.959h-2.032Z" transform="translate(71.66 450.71)" fill="#1d1f29"/>
          <path id="Path_391" data-name="Path 391" d="M1214.18,84.833a5.565,5.565,0,0,1-2.561.792V83.936a3.167,3.167,0,0,0,3.17-2.456h1.423V99.959h-2.032Z" transform="translate(29.942 450.71)" fill="#1d1f29"/>
          <path id="Path_392" data-name="Path 392" d="M1235.53,85.779c0,5.569-6.255,7.576-6.281,11.827V97.9h6.072V99.77h-8.1V98.186c0-5.966,6.255-7.127,6.255-12.329,0-1.9-.632-2.9-2.164-2.9-1.5,0-2.164,1.081-2.164,2.719v1.635h-1.927V85.8c0-2.824,1.292-4.7,4.142-4.7,2.879,0,4.171,1.849,4.171,4.674" transform="translate(22.005 450.9)" fill="#1d1f29"/>
          <path id="Path_393" data-name="Path 393" d="M1315.66,84.833a5.562,5.562,0,0,1-2.561.792V83.936a3.167,3.167,0,0,0,3.17-2.456h1.424V99.959h-2.033Z" transform="translate(-21.612 450.71)" fill="#1d1f29"/>
          <path id="Path_394" data-name="Path 394" d="M1336.81,85.753v.474c0,1.9-.766,3.248-2.244,3.8,1.556.58,2.244,1.978,2.244,3.828v1.424c0,2.824-1.321,4.674-4.173,4.674-2.824,0-4.142-1.849-4.142-4.674V94.015h1.927v1.4c0,1.664.686,2.667,2.164,2.667,1.5,0,2.164-.978,2.164-2.85V93.8c0-1.821-.766-2.693-2.322-2.744h-1.109V89.21h1.215a2.216,2.216,0,0,0,2.215-2.533v-.846c0-1.9-.66-2.876-2.164-2.876-1.478,0-2.164,1.029-2.164,2.693V86.6h-1.927v-.844c0-2.827,1.318-4.648,4.142-4.648,2.853,0,4.173,1.821,4.173,4.648" transform="translate(-29.442 450.9)" fill="#1d1f29"/>
          <path id="Path_395" data-name="Path 395" d="M1416.8,84.833a5.562,5.562,0,0,1-2.561.792V83.936a3.162,3.162,0,0,0,3.167-2.456h1.426V99.959H1416.8Z" transform="translate(-72.992 450.71)" fill="#1d1f29"/>
          <path id="Path_396" data-name="Path 396" d="M1436.85,96.237v3.722h-2.007V96.237h-5.966V94.362l5.729-12.882h2.244V94.362h1.478v1.875Zm-6.072-1.875h4.065V85.333Z" transform="translate(-80.444 450.71)" fill="#1d1f29"/>
          <path id="Path_397" data-name="Path 397" d="M1518.63,84.833a5.564,5.564,0,0,1-2.561.792V83.936a3.167,3.167,0,0,0,3.17-2.456h1.424V99.959h-2.032Z" transform="translate(-124.721 450.71)" fill="#1d1f29"/>
          <path id="Path_398" data-name="Path 398" d="M1533.65,89a2.973,2.973,0,0,1,2.745-1.532c2.376,0,3.433,1.744,3.433,4.382v3.617c0,2.824-1.346,4.674-4.171,4.674s-4.145-1.849-4.145-4.674V94.23h1.927V95.6c0,1.663.686,2.667,2.164,2.667s2.164-1,2.164-2.667V92.011c0-1.661-.686-2.664-2.164-2.664a1.989,1.989,0,0,0-2.084,1.978v.423h-1.927l.5-10.268h7.287v1.847h-5.44Z" transform="translate(-132.579 450.71)" fill="#1d1f29"/>
          <path id="Path_399" data-name="Path 399" d="M1620.06,84.833a5.564,5.564,0,0,1-2.561.792V83.936a3.167,3.167,0,0,0,3.17-2.456h1.424V99.959h-2.033Z" transform="translate(-176.248 450.71)" fill="#1d1f29"/>
          <path id="Path_400" data-name="Path 400" d="M1641.26,85.724v.343h-1.927v-.475c0-1.663-.686-2.639-2.19-2.639-1.558,0-2.244,1-2.244,2.982V90.08a2.974,2.974,0,0,1,2.982-1.981c2.375,0,3.433,1.718,3.433,4.382v2.8c0,2.824-1.4,4.674-4.225,4.674-2.85,0-4.251-1.849-4.251-4.674V85.856c0-2.93,1.321-4.751,4.251-4.751,2.853,0,4.171,1.8,4.171,4.619m-6.361,6.918v2.77c0,1.664.686,2.667,2.19,2.667,1.478,0,2.193-1,2.193-2.667v-2.77c0-1.664-.715-2.667-2.193-2.667-1.5,0-2.19,1-2.19,2.667" transform="translate(-184.052 450.9)" fill="#1d1f29"/>
          <path id="Path_401" data-name="Path 401" d="M1721.6,84.833a5.564,5.564,0,0,1-2.561.792V83.936a3.168,3.168,0,0,0,3.17-2.456h1.424V99.959H1721.6Z" transform="translate(-228.602 450.71)" fill="#1d1f29"/>
          <path id="Path_402" data-name="Path 402" d="M1740.66,83.327h-6.283V81.48h8.37v1.8L1738,99.963h-2.06Z" transform="translate(-236.352 450.71)" fill="#1d1f29"/>
          <path id="Path_403" data-name="Path 403" d="M1822.96,84.833a5.559,5.559,0,0,1-2.561.792V83.936a3.162,3.162,0,0,0,3.168-2.456h1.427V99.959h-2.033Z" transform="translate(-279.838 450.71)" fill="#1d1f29"/>
          <path id="Path_404" data-name="Path 404" d="M1844.22,85.673v.58c0,1.876-.658,3.248-2.11,3.8,1.53.606,2.11,2.058,2.11,3.9v1.375c0,2.851-1.477,4.62-4.354,4.62s-4.357-1.769-4.357-4.62V93.961c0-1.873.58-3.273,2.138-3.9-1.5-.581-2.138-1.927-2.138-3.8v-.58c0-2.85,1.5-4.568,4.357-4.568s4.354,1.718,4.354,4.568m-6.678.051v.9c0,1.795.872,2.587,2.324,2.587s2.322-.792,2.322-2.587v-.9c0-1.9-.869-2.77-2.322-2.77s-2.324.869-2.324,2.77m0,8V95.29c0,1.9.846,2.8,2.324,2.8s2.3-.9,2.322-2.8V93.723c0-1.795-.792-2.665-2.322-2.665s-2.324.87-2.324,2.665" transform="translate(-287.48 450.9)" fill="#1d1f29"/>
          <path id="Path_405" data-name="Path 405" d="M1924.52,84.833a5.563,5.563,0,0,1-2.561.792V83.936a3.167,3.167,0,0,0,3.17-2.456h1.424V99.959h-2.032Z" transform="translate(-331.18 450.71)" fill="#1d1f29"/>
          <path id="Path_406" data-name="Path 406" d="M1945.66,85.753v9.422c0,2.93-1.318,4.78-4.277,4.78-2.824,0-4.171-1.823-4.171-4.648v-.343h1.927v.477c0,1.661.715,2.639,2.193,2.639,1.584,0,2.27-1,2.27-2.956V90.979a2.956,2.956,0,0,1-2.985,1.952c-2.375,0-3.43-1.689-3.43-4.354V85.753c0-2.827,1.372-4.648,4.222-4.648s4.251,1.821,4.251,4.648m-6.441-.106v2.77c0,1.664.712,2.667,2.19,2.667,1.506,0,2.193-1,2.193-2.667v-2.77c0-1.689-.686-2.667-2.193-2.667-1.478,0-2.19.978-2.19,2.667" transform="translate(-338.878 450.9)" fill="#1d1f29"/>
          <path id="Path_407" data-name="Path 407" d="M2028,85.779c0,5.569-6.255,7.576-6.281,11.827V97.9h6.072V99.77h-8.1V98.186c0-5.966,6.255-7.127,6.255-12.329,0-1.9-.632-2.9-2.164-2.9-1.5,0-2.164,1.081-2.164,2.719v1.635h-1.927V85.8c0-2.824,1.293-4.7,4.143-4.7,2.879,0,4.171,1.849,4.171,4.674" transform="translate(-389.311 450.9)" fill="#1d1f29"/>
          <path id="Path_408" data-name="Path 408" d="M2040.03,85.753c0-2.827,1.4-4.648,4.225-4.648,2.85,0,4.249,1.821,4.249,4.648v9.528c0,2.824-1.4,4.674-4.249,4.674-2.824,0-4.225-1.849-4.225-4.674Zm2.032,9.66c0,1.664.715,2.667,2.192,2.667,1.5,0,2.19-1,2.19-2.667V85.647c0-1.69-.686-2.693-2.19-2.693-1.478,0-2.192,1-2.192,2.693Z" transform="translate(-399.598 450.9)" fill="#1d1f29"/>
        </g>
      </g>
    </g>
    <path id="Path_1" data-name="Path 1" d="M5.016-14.96a1.622,1.622,0,0,0-1.144.386,2.349,2.349,0,0,0-.616,1.2A11.209,11.209,0,0,0,3-11.269q-.055,1.289-.055,3.1,0,1.829.055,3.107a11.16,11.16,0,0,0,.253,2.093,2.213,2.213,0,0,0,.616,1.179,1.684,1.684,0,0,0,1.144.364,2.34,2.34,0,0,0,1.122-.22,1.307,1.307,0,0,0,.583-.715,4.473,4.473,0,0,0,.231-1.309Q7-4.488,7.04-5.7l2.178.176q-.11,1.5-.231,2.585a4.716,4.716,0,0,1-.528,1.808A2.479,2.479,0,0,1,7.26-.062,5.757,5.757,0,0,1,5.016.286,4.725,4.725,0,0,1,2.552-.253a3.172,3.172,0,0,1-1.3-1.6,8.523,8.523,0,0,1-.506-2.64Q.66-6.072.66-8.184q0-2.09.088-3.674a8.765,8.765,0,0,1,.506-2.662,3.166,3.166,0,0,1,1.3-1.617,4.725,4.725,0,0,1,2.464-.539,7.041,7.041,0,0,1,2.3.3,2.274,2.274,0,0,1,1.232.979,4.285,4.285,0,0,1,.517,1.771q.11,1.089.154,2.673l-2.134.286q-.044-1.364-.1-2.2a4.086,4.086,0,0,0-.253-1.3,1.113,1.113,0,0,0-.594-.627A3.017,3.017,0,0,0,5.016-14.96Zm7.216,3.014V0H10.56V-16.39h2.6l2.838,13,2.882-13h2.442V0h-1.8V-11.946L16.984,0H14.872Z" transform="translate(667 549)"/>
  </g>
</svg>
