<svg xmlns="http://www.w3.org/2000/svg" width="130.78" height="90.517" viewBox="0 0 130.78 90.517">
  <g id="Group_47" data-name="Group 47" transform="translate(-1306.404 -334.757) rotate(-30)">
    <g id="Group_46" data-name="Group 46">
      <g id="Group_45" data-name="Group 45">
        <g id="Group_44" data-name="Group 44">
          <g id="Union_1" data-name="Union 1" transform="translate(2887 1000)" fill="#fff">
            <path d="M -1892.500244140625 25.99991035461426 L -1944 25.99991035461426 C -1946.93798828125 25.99991035461426 -1949.7001953125 24.8557300567627 -1951.77783203125 22.77812957763672 C -1953.85546875 20.70053100585938 -1954.999633789062 17.93831062316895 -1954.999633789062 15.00030994415283 C -1954.999633789062 12.06189060211182 -1953.85546875 9.299389839172363 -1951.77783203125 7.221670150756836 C -1949.7001953125 5.144030094146729 -1946.938110351562 3.999810218811035 -1944 3.999810218811035 L -1892.500244140625 3.999810218811035 C -1890.67724609375 3.999810218811035 -1889.046020507812 5.087170124053955 -1888.344360351562 6.76999044418335 L -1887.831420898438 8.000309944152832 L -1886.498413085938 8.000309944152832 L -1829.999755859375 8.000309944152832 C -1826.139892578125 8.000309944152832 -1822.999755859375 11.14049053192139 -1822.999755859375 15.00030994415283 C -1822.999755859375 18.86013031005859 -1826.139892578125 22.00031089782715 -1829.999755859375 22.00031089782715 L -1886.498657226562 22.00031089782715 L -1887.831665039062 22.00031089782715 L -1888.344604492188 23.23064994812012 C -1889.046020507812 24.91291046142578 -1890.67724609375 25.99991035461426 -1892.500244140625 25.99991035461426 Z" stroke="none"/>
            <path d="M -1892.500244140625 23.99989128112793 C -1891.486938476562 23.99989128112793 -1890.580322265625 23.39585113525391 -1890.190551757812 22.46101760864258 L -1889.164672851562 20.00030899047852 L -1829.999755859375 20.00030899047852 C -1827.242797851562 20.00030899047852 -1824.999755859375 17.75730895996094 -1824.999755859375 15.00030899047852 C -1824.999755859375 12.24330902099609 -1827.242797851562 10.00030899047852 -1829.999755859375 10.00030899047852 L -1889.164428710938 10.00030899047852 L -1890.190307617188 7.539641857147217 C -1890.580322265625 6.604225158691406 -1891.487060546875 5.999808788299561 -1892.500244140625 5.999808788299561 L -1944 5.999808788299561 C -1948.96240234375 5.999808788299561 -1952.999633789062 10.03741264343262 -1952.999633789062 15.00030899047852 C -1952.999633789062 19.96270370483398 -1948.96240234375 23.99989128112793 -1944 23.99989128112793 L -1892.500244140625 23.99989128112793 M -1892.500244140625 27.99989128112793 L -1944 27.99989128112793 C -1951.179321289062 27.99989128112793 -1956.999633789062 22.17959976196289 -1956.999633789062 15.00030899047852 C -1956.999633789062 7.8201003074646 -1951.179321289062 1.999808549880981 -1944 1.999808549880981 L -1892.500244140625 1.999808549880981 C -1889.796020507812 1.999808549880981 -1887.477783203125 3.651433706283569 -1886.498413085938 6.000308513641357 L -1829.999755859375 6.000308513641357 C -1825.029052734375 6.000308513641357 -1820.999755859375 10.02960014343262 -1820.999755859375 15.00030899047852 C -1820.999755859375 19.97099685668945 -1825.029052734375 24.00030899047852 -1829.999755859375 24.00030899047852 L -1886.498657226562 24.00030899047852 C -1887.47802734375 26.34930801391602 -1889.796020507812 27.99989128112793 -1892.500244140625 27.99989128112793 Z" stroke="none" fill="#8b8a8a"/>
          </g>
          <g id="Group_43" data-name="Group 43" transform="translate(159 -17)">
            <line id="Line_1" data-name="Line 1" y2="7" transform="translate(853.5 1030.5)" fill="none" stroke="#8b8a8a" stroke-width="1"/>
            <line id="Line_2" data-name="Line 2" y2="5.011" transform="translate(857.5 1032.489)" fill="none" stroke="#8b8a8a" stroke-width="1"/>
            <line id="Line_3" data-name="Line 3" y2="7" transform="translate(862.5 1030.5)" fill="none" stroke="#8b8a8a" stroke-width="1"/>
            <line id="Line_4" data-name="Line 4" y2="5.011" transform="translate(866.5 1032.489)" fill="none" stroke="#8b8a8a" stroke-width="1"/>
            <line id="Line_5" data-name="Line 5" y2="7" transform="translate(871.5 1030.5)" fill="none" stroke="#8b8a8a" stroke-width="1"/>
            <line id="Line_6" data-name="Line 6" y2="5.011" transform="translate(875.5 1032.489)" fill="none" stroke="#8b8a8a" stroke-width="1"/>
            <line id="Line_7" data-name="Line 7" y2="7" transform="translate(880.5 1030.5)" fill="none" stroke="#8b8a8a" stroke-width="1"/>
            <line id="Line_8" data-name="Line 8" y2="5.011" transform="translate(884.5 1032.489)" fill="none" stroke="#8b8a8a" stroke-width="1"/>
            <line id="Line_9" data-name="Line 9" y2="7" transform="translate(888.5 1030.5)" fill="none" stroke="#8b8a8a" stroke-width="1"/>
          </g>
          <text id="RING_SIZE_HERE" data-name="RING SIZE HERE" transform="translate(939 1017)" fill="#89c0ae" font-size="7" font-family="Montserrat-SemiBold, Montserrat" font-weight="600"><tspan x="0" y="0">RING SIZE HERE</tspan></text>
        </g>
      </g>
    </g>
  </g>
</svg>
