<svg xmlns="http://www.w3.org/2000/svg" width="87" height="91" viewBox="0 0 87 91">
  <g id="Group_37" data-name="Group 37" transform="translate(-829 -504)">
    <g id="Group_35" data-name="Group 35" transform="translate(-12.958 -13.171)">
      <g id="Ellipse_17" data-name="Ellipse 17" transform="translate(841.958 533.171)" fill="#fff" stroke="#a09f9f" stroke-width="4">
        <ellipse cx="35" cy="34.5" rx="35" ry="34.5" stroke="none"/>
        <ellipse cx="35" cy="34.5" rx="33" ry="32.5" fill="none"/>
      </g>
      <path id="Polygon_1" data-name="Polygon 1" d="M10.285,2.858a2,2,0,0,1,3.43,0l8.468,14.113A2,2,0,0,1,20.468,20H3.532a2,2,0,0,1-1.715-3.029Z" transform="translate(888.958 537.171) rotate(180)" fill="#a09f9f"/>
      <g id="Group_34" data-name="Group 34" transform="translate(884.746 564.171)">
        <g id="Ellipse_18" data-name="Ellipse 18" transform="translate(0.212 0)" fill="none" stroke="#89c0ae" stroke-width="2">
          <circle cx="22" cy="22" r="22" stroke="none"/>
          <circle cx="22" cy="22" r="21" fill="none"/>
        </g>
        <g id="Ellipse_19" data-name="Ellipse 19" transform="translate(5.212 6)" fill="none" stroke="#89c0ae" stroke-width="2">
          <ellipse cx="16.5" cy="16" rx="16.5" ry="16" stroke="none"/>
          <ellipse cx="16.5" cy="16" rx="15.5" ry="15" fill="none"/>
        </g>
      </g>
    </g>
  </g>
</svg>
